<svg version="1.2" baseProfile="tiny-ps" xmlns="http://www.w3.org/2000/svg" viewBox="0 0 249 122" width="249" height="122">
	<title>&lt;Group&gt;</title>
	<style>
		tspan { white-space:pre }
		.shp0 { fill: #000000 } 
	</style>
	<g id="&lt;Group&gt;">
		<g id="&lt;Group&gt;">
			<g id="&lt;Group&gt;">
				<path id="&lt;Path&gt;" class="shp0" d="M0.08 3.49C2.53 18.92 5.8 36.23 18.22 47C28.53 55.95 43.56 59.19 55.04 50.49C67.15 41.32 70.44 25.19 81.07 14.74C87.99 7.95 98.15 4.1 106.44 11.06C113.09 16.66 115.94 25.9 117.44 34.13C121 53.57 115.73 72.33 114.12 91.6C112.97 105.51 118.11 119.31 133.39 121.57C148.14 123.76 160.22 114.21 168.03 102.61C177.68 88.27 183.81 70.91 187.36 54.11C190.63 38.7 192.13 18.66 205.77 8.39C210.72 4.66 216.88 2.56 221.92 7.32C225.59 10.8 228.46 15.32 230.79 19.79C235.73 29.25 237.58 39.71 237.23 50.31C237.16 52.56 240.49 52.49 240.68 50.31C242.07 34.46 236.5 17.36 225.56 5.68C215.42 -5.14 201.6 4.41 195.25 14.53C187.39 27.04 186.24 42.5 182.95 56.57C178.87 74.04 172.02 93.75 159.69 107.21C153.91 113.52 146.39 118.09 137.63 118.11C128.33 118.13 120.53 112.84 118.4 103.55C116.27 94.3 118.9 84.33 120.23 75.14C121.52 66.17 122.59 57.13 122.48 48.05C122.32 33.99 119.57 14.75 106.52 6.47C93.37 -1.87 79.62 8.86 72.2 19.63C62.52 33.7 55.22 57.32 33.23 51.51C11.7 45.82 5.85 21.93 2.2 2.91C1.93 1.51 -0.14 2.12 0.08 3.49Z" />
			</g>
		</g>
		<g id="&lt;Group&gt;">
			<g id="&lt;Group&gt;">
				<path id="&lt;Path&gt;" class="shp0" d="M246.13 40.23C246.35 40.27 246.58 40.31 246.8 40.34C246.61 39.6 246.41 38.85 246.21 38.11C244.07 40.16 242.38 42.67 240.86 45.22C239.19 48.02 238.31 51.78 236.15 54.18C237.18 54.18 238.2 54.18 239.23 54.18C235.66 50.36 231.84 46.78 227.96 43.28C225.83 41.36 222.65 44.52 224.8 46.45C228.7 49.94 232.42 53.59 236.15 57.25C236.93 58.02 238.47 58.17 239.23 57.25C241.21 54.85 241.94 51.88 243.23 49.07C244.71 45.82 246.67 42.88 248.31 39.73C249.21 38.02 246.49 36.84 245.87 38.7C245.79 38.93 245.72 39.15 245.64 39.38C245.53 39.71 245.77 40.18 246.13 40.23Z" />
			</g>
		</g>
		<g id="&lt;Group&gt;">
			<g id="&lt;Group&gt;">
				<path id="&lt;Path&gt;" class="shp0" d="M246.82 40.07C246.87 40.05 246.92 40.03 246.98 40.02C246.56 39.84 246.14 39.67 245.72 39.5C245.75 39.57 245.79 39.63 245.82 39.69C245.96 39.17 246.1 38.64 246.23 38.12C243.63 39.36 239.34 39.43 236.51 40.05C233.34 40.75 230.18 41.45 227.01 42.19C224.94 42.67 225.56 45.58 227.49 45.72C231.89 46.03 235.95 44.14 240.32 44.06C240.16 42.9 240 41.74 239.84 40.58C236.55 41.9 233.2 42.99 229.76 43.87C227.89 44.35 228.21 47.59 230.23 47.34C234.82 46.76 239.14 45.45 243.52 43.96C243.06 42.89 242.61 41.81 242.15 40.73C239.61 42.23 237.06 43.71 234.52 45.2C232.81 46.2 233.93 49.22 235.91 48.5C238.49 47.57 240.77 46.28 243.08 44.82C242.24 43.98 241.4 43.13 240.56 42.29C239.22 44.19 237.5 47.25 235.52 48.66C236.16 48.66 236.79 48.66 237.43 48.66C235.8 47.87 234.27 45.77 232.98 44.52C232.21 45.52 231.43 46.52 230.66 47.52C233.16 48.78 235.35 50.27 237.41 52.18C238.04 51.11 238.66 50.03 239.29 48.96C237.37 48.21 235.77 47.19 234.24 45.82C233.47 46.82 232.7 47.82 231.92 48.82C233.05 49.56 234.17 50.3 235.31 51.02C237.38 52.35 239.23 49.1 237.22 47.75C236.11 47 234.98 46.26 233.86 45.52C232.05 44.33 229.91 47.07 231.54 48.53C233.57 50.35 235.72 51.66 238.26 52.67C240.08 53.4 241.47 50.7 240.14 49.45C237.85 47.33 235.39 45.61 232.59 44.22C230.73 43.3 228.62 45.65 230.27 47.22C231.87 48.74 233.52 50.97 235.52 51.92C236.1 52.19 236.86 52.33 237.43 51.92C239.97 50.08 241.97 46.72 243.74 44.15C244.79 42.63 242.73 40.66 241.22 41.63C239.2 42.94 237.22 44.17 234.95 45.02C235.41 46.12 235.88 47.22 236.34 48.32C238.87 46.81 241.4 45.29 243.94 43.79C245.62 42.79 244.53 39.89 242.58 40.55C238.53 41.93 234.49 43.27 230.23 43.81C230.38 44.96 230.54 46.12 230.7 47.27C234.13 46.39 237.49 45.3 240.79 44C242.54 43.31 242.46 40.49 240.32 40.51C235.96 40.56 231.85 42.38 227.49 42.12C227.65 43.3 227.81 44.48 227.97 45.65C231.84 44.7 235.72 43.73 239.57 42.69C241.96 42.05 245.81 41.71 247.63 39.92C248.06 39.5 248.09 38.71 247.63 38.3C247.57 38.25 247.52 38.2 247.47 38.15C246.98 37.71 246.38 37.76 245.89 38.15C245.85 38.18 245.81 38.22 245.76 38.25C244.92 38.93 245.83 40.43 246.82 40.07Z" />
			</g>
		</g>
	</g>
</svg>