<svg version="1.2" baseProfile="tiny-ps" xmlns="http://www.w3.org/2000/svg" viewBox="0 0 228 61" width="228" height="61">
	<title>&lt;Group&gt;</title>
	<style>
		tspan { white-space:pre }
		.shp0 { fill: #000000 } 
	</style>
	<g id="&lt;Group&gt;">
		<g id="&lt;Group&gt;">
			<g id="&lt;Group&gt;">
				<path id="&lt;Path&gt;" class="shp0" d="M0.74 59.04C19.97 31.43 50.34 10.79 83.99 6.06C100.89 3.69 117.22 6.97 129.24 19.7C141.49 32.68 149.71 49.19 169.67 50.65C191.31 52.23 208.27 34.95 208.72 13.77C208.81 9.92 214.61 9.92 214.71 13.77C215.13 29.73 205.53 45.66 191.12 52.62C176.33 59.75 157.97 57.57 145.32 47.09C131.47 35.61 125.3 16.78 106.55 11.59C88.46 6.59 67.5 12.69 51.01 20.41C31.87 29.39 15.16 43.05 2.93 60.32C2 61.63 -0.2 60.38 0.74 59.04Z" />
			</g>
		</g>
		<g id="&lt;Group&gt;">
			<g id="&lt;Group&gt;">
				<path id="&lt;Path&gt;" class="shp0" d="M223.72 37.53C218.83 26.36 214.27 15.05 209.85 3.69C211.33 4.08 212.81 4.47 214.29 4.86C206.38 11.39 198.45 17.9 190.51 24.39C189.87 22.83 189.22 21.28 188.58 19.72C203.06 19.07 215.28 27.24 226.52 35.4C225.26 36.66 224 37.91 222.75 39.17C218.91 30.78 214.12 23 208.23 15.89C209.77 14.99 211.31 14.09 212.86 13.19C214.65 18.97 217.33 24.15 220.91 29.01C222.76 31.52 218.55 34.81 216.56 32.37C212.69 27.65 208.83 22.92 204.96 18.2C203.14 15.96 205.53 11.91 208.32 13.85C211.58 16.11 213.68 19.03 214.35 22.99C214.94 26.47 210.19 27.87 209.01 24.46C207.69 20.64 206.37 16.83 205.05 13.01C206.4 13.56 207.76 14.11 209.11 14.66C205.55 17.06 202.26 19.69 199.13 22.63C198.02 21.18 196.9 19.74 195.79 18.29C200.45 14.81 205.48 12.22 210.97 10.31C211.46 12.08 211.95 13.86 212.44 15.63C210.7 16.2 210.12 17.38 210.68 19.17C211.61 21.15 210.48 23.12 208.3 23.32C205.59 23.57 203.86 22.43 202.27 20.35C201.37 19.15 202.1 17.27 203.26 16.58C204.3 15.96 205.34 15.34 206.38 14.72C208.19 13.65 210.5 15.03 210.52 17.1C210.52 17.21 210.52 17.32 210.53 17.44C210.53 18.35 210.01 19.39 209.16 19.81C208.17 20.31 207.33 20.54 206.27 20.13C205.43 19.81 204.49 19.19 204.34 18.21C203.67 13.77 208.17 8.31 210.22 4.63C211.92 1.57 216.44 4.27 214.88 7.36C214.02 9.07 213.13 10.76 212.23 12.46C211.78 13.33 209.57 16.19 209.65 16.74C209.01 16.1 208.37 15.46 207.73 14.82C207.28 14.9 206.83 14.98 206.38 15.06C205.93 15.85 205.47 16.64 205.02 17.44C205.02 17.32 205.02 17.21 205.02 17.1C206.4 17.89 207.78 18.69 209.16 19.48C208.12 20.1 207.08 20.71 206.04 21.33C206.37 20.08 206.7 18.82 207.03 17.57C207.45 17.65 207.88 17.73 208.3 17.81C207.51 19.19 206.72 20.57 205.92 21.95C203.68 17.14 205.78 11.87 210.97 10.31C214.4 9.28 215.76 14.48 212.44 15.63C207.39 17.38 202.84 19.87 198.57 23.06C196.05 24.95 192.97 20.84 195.23 18.72C198.69 15.47 202.38 12.54 206.32 9.89C207.89 8.83 209.83 9.96 210.38 11.54C211.7 15.36 213.03 19.17 214.35 22.99C212.57 23.48 210.79 23.97 209.01 24.46C208.59 21.95 207.66 20.11 205.53 18.63C206.64 17.18 207.76 15.73 208.88 14.28C212.75 19 216.61 23.73 220.48 28.45C219.03 29.57 217.57 30.69 216.12 31.81C212.26 26.57 209.44 20.88 207.51 14.67C206.73 12.13 210.35 9.8 212.15 11.97C218.33 19.45 223.48 27.55 227.51 36.39C228.51 38.6 226.22 41.96 223.74 40.16C213.32 32.58 202.05 24.6 188.58 25.19C186.34 25.29 184.79 22.03 186.64 20.52C194.59 14.03 202.55 7.56 210.53 1.11C212.16 -0.2 214.23 0.3 214.97 2.28C219.18 13.49 223.27 24.76 227.01 36.14C227.64 38.05 224.54 39.42 223.72 37.53Z" />
			</g>
		</g>
	</g>
</svg>