<?xml version="1.0" encoding="iso-8859-1"?>
<!-- Generator: Adobe Illustrator 19.0.0, SVG Export Plug-In . SVG Version: 6.00 Build 0)  -->
<svg version="1.1" id="Layer_1" xmlns="http://www.w3.org/2000/svg" xmlns:xlink="http://www.w3.org/1999/xlink" x="0px" y="0px"
	 viewBox="0 0 297 297" style="enable-background:new 0 0 297 297;" xml:space="preserve">
<g>
	<g>
		<g>
			<g>
				<circle style="fill:#F86E51;" cx="148.5" cy="148.5" r="148.5"/>
			</g>
		</g>
	</g>
	<path style="fill:#C94631;" d="M221.336,108.667L43.32,188.973l107.992,107.992c69.66-1.294,127.585-50.549,142.148-116.134
		L221.336,108.667z"/>
	<g>
		<path style="fill:#FFFFFF;" d="M231,198c18.225,0,33-14.775,33-33s-14.775-33-33-33c0-18.225-14.775-33-33-33
			c-6.56,0-12.668,1.922-17.806,5.223C175.088,82.321,155.457,66,132,66c-24.148,0-44.246,17.295-48.61,40.172
			c-13.778,1.496-24.609,12.808-25.348,26.8C43.662,136.534,33,149.519,33,165c0,18.225,14.775,33,33,33H231z"/>
	</g>
	<g>
		<path style="fill:#E3E5E4;" d="M231,132c0-18.225-14.775-33-33-33c-6.56,0-12.668,1.922-17.806,5.223
			c-3.981-17.075-16.792-30.757-33.36-35.958V198H231c18.225,0,33-14.775,33-33S249.225,132,231,132z"/>
	</g>
	<g>
		<path style="fill:#32373B;" d="M167.794,217.591v-69.867c0-4.036-3.272-7.308-7.308-7.308h-23.971
			c-4.036,0-7.308,3.272-7.308,7.308v69.867H118.61c-3.21,0-4.817,3.881-2.547,6.15l25.422,25.422
			c3.875,3.875,10.157,3.875,14.032,0l25.422-25.422c2.27-2.27,0.662-6.15-2.547-6.15H167.794z"/>
	</g>
	<g>
		<path style="fill:#292D30;" d="M178.39,217.591h-10.596v-69.867c0-4.036-3.272-7.308-7.309-7.308h-13.652v111.505
			c3.062,0.519,6.319-0.394,8.682-2.757l25.422-25.422C183.207,221.472,181.6,217.591,178.39,217.591z"/>
	</g>
	<g>
		<path style="fill:#FFFFFF;" d="M155.059,164.247c0-3.622-2.936-6.559-6.559-6.559c-3.622,0-6.559,2.936-6.559,6.559
			c0,2.07,0.961,3.913,2.46,5.115v5.542c0,2.264,1.835,4.099,4.099,4.099c2.264,0,4.099-1.835,4.099-4.099v-5.542
			C154.097,168.16,155.059,166.317,155.059,164.247z"/>
	</g>
	<g>
		<path style="fill:#E3E5E4;" d="M148.5,157.688c-0.577,0-1.133,0.082-1.666,0.222v20.733c0.51,0.228,1.072,0.361,1.666,0.361
			c2.264,0,4.099-1.835,4.099-4.099v-5.542c1.498-1.202,2.46-3.045,2.46-5.115C155.059,160.624,152.122,157.688,148.5,157.688z"/>
	</g>
</g>
<g>
</g>
<g>
</g>
<g>
</g>
<g>
</g>
<g>
</g>
<g>
</g>
<g>
</g>
<g>
</g>
<g>
</g>
<g>
</g>
<g>
</g>
<g>
</g>
<g>
</g>
<g>
</g>
<g>
</g>
</svg>
