<svg version="1.2" baseProfile="tiny-ps" xmlns="http://www.w3.org/2000/svg" viewBox="0 0 512 512" width="512" height="512">
	<title>Layer</title>
	<style>
		tspan { white-space:pre }
		.shp0 { fill: #aa13ff } 
		.shp1 { fill: #8c00db } 
		.shp2 { fill: #132439 } 
		.shp3 { fill: #213b56 } 
		.shp4 { fill: #fffff5 } 
		.shp5 { fill: #eaeae2 } 
		.shp6 { fill: #f9ec31 } 
		.shp7 { fill: #e5d51d } 
	</style>
	<g id="Layer" style="fill-opacity: 0.988">
		<path id="Layer" class="shp0" d="M256 512C114.43 512 0 397.57 0 256C0 114.43 114.43 0 256 0C397.57 0 512 114.43 512 256C512 397.57 397.57 512 256 512Z" />
		<g id="Layer">
			<path id="Layer" class="shp1" d="M493.56 160.6L434.29 121.84L434.29 168.54L427.04 168.54L427.04 331.29L225.04 331.29L225.04 427.04L166.71 427.04L165.64 432.55L283.32 510.53C411.85 496.89 512 388.16 512 256C512 222.27 505.41 190.1 493.56 160.6Z" />
		</g>
		<g id="Layer">
			<g id="Layer">
				<g id="Layer">
					<path id="Layer" fill-rule="evenodd" class="shp2" d="M439.73 130.21L439.73 365.36C439.73 370.4 435.6 374.53 430.57 374.53L299.25 374.53L299.25 412.69L349.64 412.69L349.64 432.55L165.64 432.55L165.64 412.69L212.21 412.69L212.21 374.53L80.9 374.53C75.86 374.53 71.73 370.4 71.73 365.36L71.73 130.21C71.73 125.18 75.86 121.05 80.9 121.05L430.57 121.05C435.6 121.05 439.73 125.18 439.73 130.21ZM424.45 359.25L424.45 136.32L87.02 136.32L87.02 359.25L424.45 359.25Z" />
					<path id="Layer" class="shp3" d="M165.54 412.69L165.54 432.55L255.78 432.55L255.78 359.25L87.32 359.25L87.32 136.32L255.78 136.32L255.78 121.05L81.08 121.05C75.94 121.05 71.73 125.17 71.73 130.21L71.73 365.36C71.73 370.4 75.94 374.53 81.08 374.53L212.29 374.78L212.21 412.69L165.54 412.69L165.54 412.69Z" />
					<path id="Layer" class="shp4" d="M87.02 136.32L424.45 136.32L424.45 359.25L87.02 359.25L87.02 136.32Z" />
				</g>
				<path id="Layer" class="shp5" d="M256 136.49L424.78 136.49L424.78 359.42L256 359.42L256 136.49Z" />
			</g>
			<g id="Layer">
				<path id="Layer" class="shp6" d="M270.43 214.32C270.62 214.59 270.79 214.84 270.93 215.07C270.79 214.84 270.62 214.59 270.43 214.32Z" />
				<path id="Layer" class="shp6" d="M271.04 215.24C271.16 215.45 271.28 215.65 271.38 215.8C271.28 215.64 271.16 215.45 271.04 215.24Z" />
				<path id="Layer" class="shp6" d="M269.65 213.23C269.89 213.55 270.12 213.87 270.33 214.16C270.12 213.86 269.89 213.55 269.65 213.23Z" />
				<path id="Layer" class="shp6" d="M271.46 215.96C271.63 216.26 271.73 216.46 271.73 216.46C271.73 216.46 271.63 216.25 271.46 215.96Z" />
				<path id="Layer" class="shp6" d="M269.58 213.14C267.38 210.26 263.53 206.59 258.41 206.61C263.52 206.58 267.37 210.27 269.58 213.14Z" />
				<path id="Layer" class="shp6" d="M256.46 206.8C257.11 206.68 257.74 206.61 258.35 206.61C257.74 206.61 257.11 206.68 256.46 206.8Z" />
				<path id="Layer" class="shp6" d="M254.34 207.41C255.01 207.15 255.66 206.96 256.3 206.84C255.66 206.96 255.01 207.15 254.34 207.41Z" />
				<path id="Layer" class="shp6" d="M298.97 221.76C298.97 221.76 291.54 202.66 277.73 216.46C277.73 216.46 277.63 216.26 277.46 215.96C277.43 215.91 277.41 215.87 277.38 215.8C277.28 215.65 277.16 215.45 277.04 215.24C277 215.19 276.97 215.14 276.93 215.07C276.79 214.84 276.62 214.59 276.43 214.32C276.4 214.26 276.37 214.21 276.33 214.16C276.12 213.87 275.89 213.55 275.65 213.23C275.63 213.2 275.6 213.17 275.58 213.14C273.37 210.27 269.52 206.58 264.41 206.6C264.39 206.6 264.38 206.6 264.35 206.6C263.74 206.61 263.11 206.68 262.46 206.8C262.41 206.81 262.35 206.82 262.3 206.83C261.66 206.96 261.01 207.15 260.34 207.4C260.28 207.43 260.23 207.45 260.16 207.47C259.53 207.72 258.88 208.05 258.22 208.42C258.17 208.45 258.12 208.47 258.06 208.5L258.06 208.52C256.55 209.38 254.98 210.55 253.33 212.21C253.33 212.21 250.57 204.13 242.74 203.75C239.27 203.58 232.77 205.29 231.05 212.17C231.16 211.59 231.24 211 231.24 210.38L231.24 164.22C231.24 158.65 226.64 154.13 220.99 154.13C215.33 154.13 210.74 158.65 210.74 164.22L210.74 210.38C210.74 210.83 210.81 211.25 210.87 211.68L210.87 221.76L210.87 234.49L210.87 247.23L195.49 231.84C195.49 231.84 189.57 224.97 182.91 231.13C180.59 233.08 178.74 238.97 183.27 246.17C183.27 246.17 220.42 304.55 228.92 310.92C237.41 317.29 251.2 317.29 260.76 316.23C270.31 315.16 296.85 307.74 298.97 288.63C301.09 269.52 298.97 221.76 298.97 221.76Z" />
				<path id="Layer" class="shp7" d="M298.97 221.76C298.97 221.76 291.54 202.66 277.73 216.46C277.73 216.46 277.63 216.26 277.46 215.96C277.43 215.91 277.41 215.87 277.38 215.8C277.28 215.65 277.16 215.45 277.04 215.24C277 215.19 276.97 215.14 276.93 215.07C276.79 214.84 276.62 214.59 276.43 214.32C276.4 214.26 276.37 214.21 276.33 214.16C276.12 213.87 275.89 213.55 275.65 213.23L275.58 213.14C273.37 210.27 269.52 206.58 264.41 206.6L264.35 206.6C263.74 206.61 263.11 206.68 262.46 206.8C262.41 206.81 262.35 206.82 262.3 206.83C261.66 206.96 261.01 207.15 260.34 207.4C260.28 207.43 260.23 207.45 260.16 207.47C259.53 207.72 258.88 208.05 258.22 208.42C258.17 208.45 258.12 208.47 258.06 208.5L258.06 208.52C257.36 208.92 256.64 209.4 255.91 209.96L256.04 316.6C257.69 316.51 259.28 316.39 260.76 316.23C270.31 315.17 296.84 307.74 298.97 288.63C301.09 269.52 298.97 221.76 298.97 221.76Z" />
			</g>
		</g>
	</g>
</svg>