<svg version="1.2" baseProfile="tiny-ps" xmlns="http://www.w3.org/2000/svg" viewBox="0 0 382 382" width="382" height="382">
	<title>object</title>
	<style>
		tspan { white-space:pre }
		.shp0 { fill: #edf0f4 } 
		.shp1 { fill: #f8e98c } 
		.shp2 { fill: #000000 } 
	</style>
	<g id="colour">
		<path id="&lt;Path&gt;" class="shp0" d="M381.04 191.44C381.04 296.66 295.74 381.96 190.52 381.96C85.3 381.96 0 296.66 0 191.44C0 86.21 85.3 0.91 190.52 0.91C295.74 0.91 381.04 86.21 381.04 191.44Z" />
		<path id="&lt;Path&gt;" class="shp1" d="M253.42 165.69C253.42 204.72 221.78 236.36 182.75 236.36C143.72 236.36 112.08 204.72 112.08 165.69C112.08 126.67 143.72 95.03 182.75 95.03C221.78 95.03 253.42 126.67 253.42 165.69Z" />
	</g>
	<g id="object">
		<g id="&lt;Group&gt;">
			<g id="&lt;Group&gt;">
				<g id="&lt;Group&gt;">
					<path id="&lt;Path&gt;" class="shp2" d="M130.4 260.06C128.74 250.22 123.47 241.61 119.43 232.64C114.73 222.19 111.5 210.82 107.78 199.99C102.64 185.06 98.83 170.71 98.85 154.82C98.89 126.72 108.86 96.62 131.25 78.5C156.19 58.32 194.97 58.73 222.52 73.04C250.17 87.39 268.05 116.28 270.03 147.17C272.47 185.06 249.32 217.91 239.99 253.32C239.61 254.75 241.82 255.36 242.2 253.93C252.02 216.66 276.13 182.59 271.94 142.55C268.88 113.36 251.48 86.9 226.04 72.35C200.07 57.49 164.34 56.01 138.09 71.06C114.11 84.8 101.25 112.32 97.69 138.82C95.55 154.8 96.34 171.31 101.01 186.79C104.93 199.78 109.76 212.49 114.21 225.3C118.34 237.22 126.08 248.12 128.19 260.66C128.43 262.12 130.64 261.5 130.4 260.06Z" />
				</g>
				<g id="&lt;Group&gt;">
					<path id="&lt;Path&gt;" class="shp2" d="M124.59 261.28C132.27 266.91 141.94 269.03 151.2 270.34C161.07 271.74 171.05 271.95 180.99 272.29C203.8 273.07 227.08 272.12 246.82 259.23C248.09 258.4 246.91 256.34 245.62 257.18C226.23 269.85 203.39 270.72 180.99 269.93C171.49 269.59 161.98 269.34 152.53 268.15C143.26 266.99 133.45 264.86 125.79 259.23C124.55 258.33 123.37 260.38 124.59 261.28Z" />
				</g>
				<g id="&lt;Group&gt;">
					<path id="&lt;Path&gt;" class="shp2" d="M122.98 255.13C123.05 256.25 122.96 257.33 123.25 258.44C123.6 259.78 125.5 259.42 125.57 258.12C125.73 255.44 127.18 253.79 129 251.97C128.38 251.49 127.76 251.01 127.14 250.53C126.25 251.91 125.6 253.48 125.94 255.15C126.17 256.34 126.88 257.35 127.12 258.52C127.44 260.01 129.72 259.38 129.41 257.89C129.22 257 128.76 256.22 128.44 255.37C127.93 254.02 128.44 252.88 129.19 251.73C129.93 250.58 128.26 249.35 127.33 250.29C125.03 252.6 123.41 254.77 123.21 258.12C123.98 258.02 124.76 257.91 125.53 257.81C125.3 256.93 125.41 256.03 125.35 255.13C125.25 253.61 122.88 253.6 122.98 255.13Z" />
				</g>
				<g id="&lt;Group&gt;">
					<path id="&lt;Path&gt;" class="shp2" d="M241.96 252.05C241.76 254.93 242.1 257.83 241.13 260.6C240.73 261.73 242.32 262.59 243.11 261.75C244.02 260.79 244.94 259.65 244.98 258.25C245.03 256.83 244.42 255.51 244.33 254.1C244.23 252.59 241.86 252.58 241.96 254.1C242.03 255.06 242.2 255.97 242.44 256.9C242.79 258.28 242.42 259.04 241.43 260.08C242.09 260.46 242.75 260.85 243.41 261.23C244.46 258.26 244.11 255.14 244.33 252.05C244.43 250.53 242.07 250.54 241.96 252.05Z" />
				</g>
				<g id="&lt;Group&gt;">
					<path id="&lt;Path&gt;" class="shp2" d="M163.26 269.17C160.25 259.35 161.76 248.91 161.79 238.82C161.8 234.11 161.09 229.49 160.62 224.81C160.1 219.55 159.78 214.27 159.33 209C158.53 199.76 157.25 190.44 153.69 181.81C151.77 177.14 149.35 171.13 145.1 168.08C140.6 164.84 137 169.18 135.97 173.55C134.63 179.29 139.3 184.22 143.49 187.32C148.23 190.83 154.54 193.44 160.51 193.05C167.3 192.61 174.16 188.22 178.07 182.77C181.61 177.84 183.23 171.79 181.26 165.88C180.07 162.32 176.69 161.3 173.98 163.89C170.68 167.05 170.38 173.02 171.04 177.24C171.63 181.01 173.87 184.35 176.76 186.76C188.77 196.75 213.25 192.71 217.56 176.45C217.71 175.88 217.45 175.44 217.02 175.11C207.21 167.6 195.83 182.77 202.22 191.81C208.13 200.15 221.89 193.18 225.16 185.85C225.48 185.13 225.23 184.39 224.45 184.12C209.93 179.06 206.42 207.72 205.18 216.04C202.6 233.34 201.96 250.98 201.96 268.46C201.96 269.99 204.33 269.99 204.33 268.46C204.33 257.29 204.2 179.57 223.82 186.4C223.59 185.82 223.35 185.24 223.11 184.66C220.56 190.39 212.32 195.18 206.19 192.18C196.79 187.59 206.91 170.33 215.83 177.15C215.64 176.71 215.46 176.26 215.28 175.82C212.3 187.06 199.09 190.87 188.74 189.31C183.71 188.55 178.63 186.29 175.57 182.09C174.08 180.04 173.34 177.59 173.15 175.08C172.91 172.03 173.48 165.97 176.9 164.72C180.7 163.33 179.41 174.63 178.98 176.07C177.61 180.64 174 184.39 170.17 187.04C163.35 191.74 156.11 191.38 148.97 187.87C142.74 184.8 135.13 178.31 139.65 170.83C143.42 164.6 149.9 178.99 151.07 181.64C157.18 195.53 156.89 211.17 158.37 226C159.13 233.59 159.45 240.86 159.18 248.5C158.93 255.65 158.86 262.89 160.97 269.8C161.42 271.26 163.7 270.64 163.26 269.17Z" />
				</g>
				<g id="&lt;Group&gt;">
					<path id="&lt;Path&gt;" class="shp2" d="M123.33 254.29C117.6 258.84 118.27 266.92 118.8 273.46C119.3 279.62 118.69 286.61 121.2 292.4C123.89 298.59 129.93 301.39 135.9 303.7C144.77 307.13 154.21 308.98 163.63 310.12C180.71 312.18 198 310.26 215.13 309.76C226.8 309.42 244.12 308.81 250.9 297.35C255.01 290.41 256.23 280.84 256.5 272.95C256.76 265.35 255.25 255.07 246.54 252.96C245.05 252.6 244.42 254.88 245.91 255.24C257.82 258.13 254.26 277.88 252.3 286.26C251.22 290.88 249.9 295.61 246.5 299.06C241.19 304.46 232.69 305.94 225.49 306.75C217.83 307.6 210.08 307.45 202.38 307.66C193.82 307.9 185.38 308.89 176.79 308.69C166.54 308.44 156.3 307.09 146.37 304.54C138.82 302.61 128.48 300.09 124.12 292.98C121.14 288.13 121.74 281.51 121.37 276.08C120.94 269.52 119.1 260.66 125 255.96C126.19 255.01 124.51 253.35 123.33 254.29Z" />
				</g>
				<g id="&lt;Group&gt;">
					<path id="&lt;Path&gt;" class="shp2" d="M136.69 304.56C136.55 304.53 136.4 304.51 136.25 304.49C135.2 304.32 134.46 305.24 134.92 306.23C136.75 310.2 138.27 314.22 139.72 318.38C140.37 320.26 141.29 324.62 142.93 325.95C144.78 327.46 147.77 327.45 150.03 327.48C154.85 327.55 159.61 328.77 164.4 329.34C174.23 330.51 184.11 331.2 194 331.24C204.13 331.28 214.11 329.53 224.22 329.4C224.9 329.39 225.35 328.86 225.4 328.21C225.9 321.68 231.21 316.48 231.93 309.8C232.09 308.28 229.72 308.3 229.56 309.8C228.85 316.47 223.54 321.54 223.03 328.21C223.43 327.82 223.82 327.42 224.22 327.03C215.45 327.14 206.78 328.61 198.02 328.83C188.58 329.07 179.13 328.48 169.75 327.55C165.14 327.1 160.53 326.6 155.99 325.67C152.42 324.93 148.71 325.53 145.21 324.49C143.13 323.87 141.96 317.62 141.29 315.7C140 312.03 138.57 308.53 136.96 305.03C136.52 305.61 136.07 306.19 135.63 306.77C135.77 306.79 135.92 306.82 136.06 306.84C137.56 307.08 138.2 304.8 136.69 304.56Z" />
				</g>
				<g id="&lt;Group&gt;">
					<path id="&lt;Path&gt;" class="shp2" d="M150.96 327.55C152.31 333.46 158.37 335.24 163.45 336.97C171.25 339.62 179.65 340.82 187.85 341.08C196.4 341.36 210.3 340.04 213.77 330.63C214.29 329.2 212.01 328.58 211.48 330C208.46 338.21 195.13 338.84 187.85 338.71C180.99 338.59 174.14 337.47 167.52 335.72C162.56 334.4 154.56 332.7 153.25 326.92C152.91 325.44 150.62 326.07 150.96 327.55Z" />
				</g>
				<g id="&lt;Group&gt;">
					<path id="&lt;Path&gt;" class="shp2" d="M158.14 329.13C157.55 330.66 158.09 332.31 158.6 333.78C158.85 334.5 159.99 334.19 159.74 333.46C159.3 332.19 158.76 330.78 159.29 329.45C159.57 328.74 158.42 328.43 158.14 329.13Z" />
				</g>
				<g id="&lt;Group&gt;">
					<path id="&lt;Path&gt;" class="shp2" d="M161.32 330.2C161.48 331.92 161.5 333.72 162.31 335.29C162.66 335.97 163.68 335.37 163.33 334.69C162.62 333.32 162.64 331.7 162.5 330.2C162.43 329.45 161.24 329.44 161.32 330.2Z" />
				</g>
				<g id="&lt;Group&gt;">
					<path id="&lt;Path&gt;" class="shp2" d="M166.12 329.82C165.34 331.81 166.28 334.12 166.81 336.06C167.01 336.79 168.15 336.48 167.95 335.74C167.47 334.01 166.57 331.91 167.26 330.13C167.54 329.42 166.4 329.11 166.12 329.82Z" />
				</g>
				<g id="&lt;Group&gt;">
					<path id="&lt;Path&gt;" class="shp2" d="M170.66 330.2C170.65 332.43 171.21 334.57 171.59 336.74C171.73 337.49 172.87 337.17 172.74 336.43C172.37 334.36 171.83 332.32 171.84 330.2C171.85 329.44 170.67 329.44 170.66 330.2Z" />
				</g>
				<g id="&lt;Group&gt;">
					<path id="&lt;Path&gt;" class="shp2" d="M175.24 330.96C174.56 333.03 174.95 335.45 175.98 337.34C176.35 338.01 177.37 337.41 177.01 336.74C176.12 335.11 175.8 333.05 176.38 331.27C176.62 330.54 175.48 330.24 175.24 330.96Z" />
				</g>
				<g id="&lt;Group&gt;">
					<path id="&lt;Path&gt;" class="shp2" d="M178.89 331.96C179.39 333.92 179.75 335.92 180.26 337.88C180.44 338.62 181.59 338.31 181.4 337.57C180.9 335.6 180.53 333.61 180.03 331.64C179.84 330.9 178.7 331.22 178.89 331.96Z" />
				</g>
				<g id="&lt;Group&gt;">
					<path id="&lt;Path&gt;" class="shp2" d="M183.45 331.5C184.26 333.49 184.71 335.59 185.27 337.65C185.47 338.39 186.61 338.08 186.41 337.34C185.85 335.27 185.4 333.17 184.59 331.18C184.3 330.49 183.16 330.79 183.45 331.5Z" />
				</g>
				<g id="&lt;Group&gt;">
					<path id="&lt;Path&gt;" class="shp2" d="M190.95 332.48C191.16 334.64 191.79 336.7 192.34 338.79C192.53 339.53 193.67 339.22 193.48 338.48C192.96 336.5 192.34 334.53 192.13 332.48C192.06 331.73 190.87 331.72 190.95 332.48Z" />
				</g>
				<g id="&lt;Group&gt;">
					<path id="&lt;Path&gt;" class="shp2" d="M196.19 331.8C196.31 333.92 197.02 335.87 197.87 337.8C198.17 338.49 199.19 337.89 198.89 337.2C198.13 335.47 197.48 333.7 197.37 331.8C197.33 331.04 196.15 331.04 196.19 331.8Z" />
				</g>
				<g id="&lt;Group&gt;">
					<path id="&lt;Path&gt;" class="shp2" d="M200.24 332.67C200.7 333.15 200.88 333.94 201.09 334.55C201.37 335.33 201.63 336.12 201.97 336.88C202.29 337.58 203.31 336.98 202.99 336.29C202.36 334.89 202.16 332.98 201.08 331.84C200.55 331.28 199.71 332.12 200.24 332.67Z" />
				</g>
				<g id="&lt;Group&gt;">
					<path id="&lt;Path&gt;" class="shp2" d="M204.42 330.36C204.84 331.89 205.53 333.34 205.79 334.92C205.91 335.67 207.05 335.35 206.93 334.6C206.67 333.03 205.98 331.58 205.56 330.05C205.36 329.31 204.21 329.62 204.42 330.36Z" />
				</g>
				<g id="&lt;Group&gt;">
					<path id="&lt;Path&gt;" class="shp2" d="M207.67 330.5C208.2 331.41 208.66 332.37 209.26 333.24C209.7 333.86 210.72 333.27 210.29 332.64C209.69 331.77 209.22 330.82 208.69 329.9C208.31 329.25 207.28 329.84 207.67 330.5Z" />
				</g>
				<g id="&lt;Group&gt;">
					<path id="&lt;Path&gt;" class="shp2" d="M209.89 330.59C210.04 330.97 210.19 331.35 210.34 331.73C210.46 332.03 210.74 332.23 211.07 332.14C211.36 332.06 211.61 331.71 211.49 331.41C211.33 331.03 211.18 330.65 211.03 330.27C210.91 329.97 210.64 329.77 210.3 329.86C210.02 329.94 209.77 330.29 209.89 330.59Z" />
				</g>
				<g id="&lt;Group&gt;">
					<path id="&lt;Path&gt;" class="shp2" d="M155.91 330.49C163.89 334.42 173.01 334.88 181.7 335.86C190.17 336.81 199.42 337.73 207.34 333.9C208.03 333.57 207.43 332.55 206.74 332.88C199.34 336.46 190.64 335.62 182.72 334.79C173.93 333.86 164.56 333.43 156.51 329.46C155.82 329.13 155.22 330.15 155.91 330.49Z" />
				</g>
				<g id="&lt;Group&gt;">
					<path id="&lt;Path&gt;" class="shp2" d="M204.71 272.46C202.83 275.32 204.91 281.02 205.22 284.16C205.61 288.13 205.7 292.13 205.75 296.12C205.8 299.81 206.32 304 204.87 307.48C204.58 308.18 205.73 308.49 206.02 307.79C206.97 305.5 207 303.13 206.98 300.68C206.94 296.94 206.92 293.21 206.76 289.47C206.64 286.61 206.44 283.75 206 280.92C205.68 278.9 204.49 274.95 205.73 273.06C206.15 272.42 205.12 271.83 204.71 272.46Z" />
				</g>
				<g id="&lt;Group&gt;">
					<path id="&lt;Path&gt;" class="shp2" d="M209.89 307.34C210.74 301.43 211.09 295.52 210.96 289.55C210.83 283.52 209.67 277.62 209.23 271.62C209.17 270.86 207.99 270.86 208.04 271.62C208.45 277.17 209.45 282.63 209.73 288.2C210.04 294.48 209.64 300.8 208.75 307.02C208.64 307.77 209.78 308.09 209.89 307.34Z" />
				</g>
				<g id="&lt;Group&gt;">
					<path id="&lt;Path&gt;" class="shp2" d="M213.79 306.95C213.59 300.15 214.55 293.3 214.49 286.47C214.45 281.48 214.39 275.51 212.34 270.87C212.03 270.17 211.01 270.77 211.32 271.46C213.44 276.29 213.27 282.6 213.32 287.78C213.37 294.18 212.42 300.58 212.6 306.95C212.63 307.71 213.81 307.72 213.79 306.95Z" />
				</g>
				<g id="&lt;Group&gt;">
					<path id="&lt;Path&gt;" class="shp2" d="M217.21 306.04C217.59 299.76 218.52 293.52 218.79 287.23C218.9 284.65 218.97 281.86 218.47 279.32C217.85 276.14 216.64 273.07 216.75 269.8C216.78 269.03 215.59 269.04 215.57 269.8C215.49 272.08 216.01 274.19 216.58 276.39C217.4 279.55 217.65 282.63 217.64 285.88C217.62 292.62 216.43 299.32 216.02 306.04C215.98 306.8 217.16 306.8 217.21 306.04Z" />
				</g>
				<g id="&lt;Group&gt;">
					<path id="&lt;Path&gt;" class="shp2" d="M219.24 306.2C221.4 300.57 222.03 294.63 222.3 288.65C222.43 285.53 222.5 282.38 222.42 279.25C222.34 276.07 221.3 272.97 221.08 269.8C221.03 269.04 219.84 269.03 219.9 269.8C220.07 272.24 220.57 274.6 220.98 277.01C221.57 280.4 221.25 284.03 221.15 287.46C220.99 293.72 220.36 300 218.09 305.88C217.82 306.6 218.96 306.9 219.24 306.2Z" />
				</g>
				<g id="&lt;Group&gt;">
					<path id="&lt;Path&gt;" class="shp2" d="M223.32 269.11C223.28 272.03 223.86 274.9 224.03 277.81C224.24 281.52 224.38 285.24 224.45 288.95C224.56 294.79 225.41 301.32 224.02 307.02C223.84 307.76 224.98 308.08 225.16 307.34C226.5 301.86 225.67 295.93 225.65 290.35C225.64 286.63 225.47 282.92 225.29 279.2C225.12 275.84 224.46 272.47 224.5 269.11C224.51 268.35 223.33 268.35 223.32 269.11Z" />
				</g>
				<g id="&lt;Group&gt;">
					<path id="&lt;Path&gt;" class="shp2" d="M226.28 268.88C226.27 272.03 227.12 275.17 227.44 278.3C227.81 281.86 227.91 285.45 228.01 289.02C228.09 291.78 228.18 294.49 228.46 297.23C228.78 300.33 229.19 303.87 227.5 306.65C227.1 307.31 228.13 307.9 228.52 307.25C231.09 303.03 229.49 297.63 229.29 293.02C229.11 289 229.1 284.99 228.84 280.97C228.59 276.96 227.46 272.88 227.46 268.88C227.46 268.12 226.28 268.12 226.28 268.88Z" />
				</g>
				<g id="&lt;Group&gt;">
					<path id="&lt;Path&gt;" class="shp2" d="M229.24 268.43C229.5 271.42 230.63 274.18 231.28 277.09C232.11 280.84 232.13 284.84 232.2 288.66C232.26 291.86 232.16 295.06 232.24 298.25C232.3 301.12 232.47 304.04 231.54 306.79C231.3 307.52 232.44 307.83 232.68 307.11C234.43 301.91 233.42 295.38 233.4 289.98C233.39 286.47 233.23 282.98 232.83 279.49C232.4 275.71 230.76 272.21 230.43 268.43C230.36 267.67 229.18 267.67 229.24 268.43Z" />
				</g>
				<g id="&lt;Group&gt;">
					<path id="&lt;Path&gt;" class="shp2" d="M233.35 267.52C233.63 273.73 234.8 279.86 235.05 286.11C235.31 292.45 235.3 298.78 235.4 305.13C235.41 305.89 236.59 305.89 236.58 305.13C236.48 298.78 236.47 292.45 236.24 286.11C236.01 279.86 234.81 273.72 234.53 267.52C234.5 266.76 233.31 266.75 233.35 267.52Z" />
				</g>
				<g id="&lt;Group&gt;">
					<path id="&lt;Path&gt;" class="shp2" d="M236.56 265.17C236.97 268.19 238.3 270.91 238.69 274.01C239.07 277.06 239.11 280.15 239.18 283.22C239.35 290.15 239.71 297.06 239.73 303.99C239.73 304.75 240.91 304.75 240.91 303.99C240.89 297.06 240.52 290.15 240.37 283.22C240.29 279.7 240.14 276.2 239.71 272.71C239.36 269.96 238.07 267.55 237.7 264.85C237.6 264.1 236.46 264.42 236.56 265.17Z" />
				</g>
				<g id="&lt;Group&gt;">
					<path id="&lt;Path&gt;" class="shp2" d="M239.98 262.66C241.78 269.87 241.83 277.23 242.02 284.61C242.11 288.11 242.3 291.6 242.47 295.1C242.59 297.68 242.31 300.49 242.94 303.01C243.13 303.75 244.27 303.43 244.08 302.69C243.29 299.53 243.68 295.73 243.52 292.48C243.35 288.98 243.22 285.47 243.14 281.96C242.99 275.35 242.73 268.79 241.12 262.35C240.93 261.6 239.79 261.92 239.98 262.66Z" />
				</g>
				<g id="&lt;Group&gt;">
					<path id="&lt;Path&gt;" class="shp2" d="M243.38 260.91C243.58 263.6 244.44 266.12 245 268.75C245.82 272.6 245.96 276.65 246.14 280.58C246.28 283.74 246.33 286.91 246.62 290.07C246.93 293.43 247.37 296.9 246.36 300.18C246.14 300.92 247.28 301.23 247.5 300.5C249.16 295.11 247.63 288.79 247.42 283.26C247.27 279.24 247.08 275.23 246.58 271.24C246.14 267.75 244.82 264.42 244.56 260.91C244.5 260.15 243.32 260.15 243.38 260.91Z" />
				</g>
				<g id="&lt;Group&gt;">
					<path id="&lt;Path&gt;" class="shp2" d="M244.76 259.92C246.75 265.28 248.54 270.67 249.75 276.25C250.86 281.37 252.68 287.49 251.38 292.66C251.19 293.4 252.33 293.72 252.52 292.98C253.64 288.5 252.38 283.84 251.54 279.42C250.23 272.61 248.32 266.12 245.91 259.61C245.64 258.9 244.5 259.21 244.76 259.92Z" />
				</g>
				<g id="&lt;Group&gt;">
					<path id="&lt;Path&gt;" class="shp2" d="M246.28 259.05C248.29 261.49 250 263.15 251.21 266.2C252.5 269.47 254.13 272.6 254.32 276.18C254.36 276.94 255.54 276.94 255.5 276.18C255.31 272.47 253.67 269.29 252.35 265.88C251.08 262.6 249.27 260.82 247.12 258.21C246.64 257.62 245.8 258.46 246.28 259.05Z" />
				</g>
				<g id="&lt;Group&gt;">
					<path id="&lt;Path&gt;" class="shp2" d="M203.98 307.41C203.89 295.88 201.58 284.52 201.48 272.99C201.47 272.23 200.29 272.22 200.29 272.99C200.39 284.52 202.71 295.88 202.8 307.41C202.81 308.17 203.99 308.17 203.98 307.41Z" />
				</g>
				<g id="&lt;Group&gt;">
					<path id="&lt;Path&gt;" class="shp2" d="M196.65 271.85C196.64 278.18 196.51 284.51 196.84 290.84C197.16 296.85 198.21 302.78 198.7 308.78C198.76 309.53 199.94 309.54 199.88 308.78C199.4 302.78 198.41 296.84 198.03 290.84C197.62 284.52 197.82 278.17 197.83 271.85C197.83 271.08 196.65 271.09 196.65 271.85Z" />
				</g>
				<g id="&lt;Group&gt;">
					<path id="&lt;Path&gt;" class="shp2" d="M191.2 272.15C190.75 274.22 191.33 276.13 191.57 278.2C192.02 281.9 191.95 285.71 192.1 289.43C192.24 292.67 192.39 295.91 192.74 299.12C193.12 302.6 194.02 305.93 193.91 309.46C193.89 310.22 195.07 310.22 195.09 309.46C195.28 303.28 193.65 297.04 193.35 290.84C193.19 287.56 193.08 284.28 192.92 281.01C192.79 278.38 191.79 275 192.34 272.46C192.5 271.72 191.36 271.4 191.2 272.15Z" />
				</g>
				<g id="&lt;Group&gt;">
					<path id="&lt;Path&gt;" class="shp2" d="M186.62 273.67C186.65 285.09 187.43 296.48 188.21 307.86C188.26 308.62 189.45 308.63 189.4 307.86C188.61 296.48 187.83 285.09 187.8 273.67C187.8 272.91 186.61 272.91 186.62 273.67Z" />
				</g>
				<g id="&lt;Group&gt;">
					<path id="&lt;Path&gt;" class="shp2" d="M182.08 272.6C180.88 277.95 181.84 284.33 182.07 289.76C182.35 296.18 182.41 302.89 183.9 309.16C184.08 309.9 185.22 309.59 185.04 308.85C183.68 303.12 183.64 297.01 183.33 291.15C183.15 287.91 183.06 284.67 183.02 281.43C182.98 278.62 182.6 275.68 183.22 272.92C183.39 272.17 182.25 271.86 182.08 272.6Z" />
				</g>
				<g id="&lt;Group&gt;">
					<path id="&lt;Path&gt;" class="shp2" d="M177.96 272.53C177.95 279.48 177.92 286.43 177.93 293.38C177.93 298.8 177.29 304.92 179.34 310.07C179.62 310.77 180.77 310.47 180.49 309.76C178.48 304.72 179.12 298.68 179.11 293.38C179.1 286.43 179.14 279.48 179.14 272.53C179.14 271.77 177.96 271.77 177.96 272.53Z" />
				</g>
				<g id="&lt;Group&gt;">
					<path id="&lt;Path&gt;" class="shp2" d="M173.93 271.32C173.21 272.93 173.28 274.82 173.25 276.55C173.19 279.63 173.1 282.71 173.08 285.8C173.04 289.84 173.19 293.9 173.57 297.92C173.92 301.57 174.89 305.08 174.76 308.78C174.74 309.54 175.92 309.54 175.95 308.78C176.05 305.86 175.56 303.03 175.08 300.16C174.44 296.33 174.36 292.42 174.28 288.55C174.21 285.37 174.39 282.21 174.42 279.04C174.45 276.85 174.03 273.96 174.95 271.92C175.27 271.23 174.25 270.63 173.93 271.32Z" />
				</g>
				<g id="&lt;Group&gt;">
					<path id="&lt;Path&gt;" class="shp2" d="M169.92 271.89C168.86 273.24 168.91 275.07 168.9 276.71C168.87 279.95 169.08 283.16 169 286.41C168.89 291.08 169.11 295.69 169.55 300.33C169.87 303.57 169.82 306.75 171.2 309.76C171.51 310.45 172.53 309.85 172.22 309.16C170.82 306.11 170.96 302.67 170.65 299.4C170.32 295.94 170.16 292.49 170.15 289.02C170.15 286.27 170.38 283.53 170.25 280.79C170.14 278.61 169.31 274.57 170.76 272.72C171.23 272.13 170.39 271.29 169.92 271.89Z" />
				</g>
				<g id="&lt;Group&gt;">
					<path id="&lt;Path&gt;" class="shp2" d="M166.35 272.37C165.74 274.6 165.92 276.99 165.8 279.28C165.62 282.89 165.62 286.51 165.62 290.12C165.63 296.37 164.9 303.08 166.58 309.16C166.78 309.9 167.92 309.58 167.72 308.85C166.08 302.9 166.83 296.24 166.81 290.12C166.8 286.96 166.83 283.8 166.93 280.63C167.01 278.09 166.82 275.15 167.49 272.69C167.69 271.95 166.55 271.64 166.35 272.37Z" />
				</g>
				<g id="&lt;Group&gt;">
					<path id="&lt;Path&gt;" class="shp2" d="M162.7 271.92C161.93 274.7 162.21 277.56 162.22 280.41C162.23 285.08 162.1 289.75 162.26 294.43C162.4 298.9 161.25 305.41 163.9 309.3C164.33 309.93 165.36 309.34 164.93 308.7C163.43 306.51 163.58 303.6 163.58 301.05C163.59 298.37 163.48 295.71 163.39 293.03C163.27 289.29 163.33 285.54 163.38 281.8C163.42 278.64 162.99 275.31 163.85 272.23C164.05 271.5 162.91 271.18 162.7 271.92Z" />
				</g>
				<g id="&lt;Group&gt;">
					<path id="&lt;Path&gt;" class="shp2" d="M159.04 271.39C159.28 283.53 155.91 296.66 159.97 308.48C160.21 309.19 161.36 308.89 161.11 308.16C157.1 296.46 160.46 283.41 160.22 271.39C160.2 270.63 159.02 270.63 159.04 271.39Z" />
				</g>
				<g id="&lt;Group&gt;">
					<path id="&lt;Path&gt;" class="shp2" d="M155.16 270.25C154.92 276.23 154.42 282.19 154.15 288.17C153.88 293.95 154.76 299.6 154.7 305.36C154.7 306.12 155.88 306.12 155.89 305.36C155.94 299.6 155.11 293.95 155.33 288.17C155.55 282.19 156.11 276.23 156.34 270.25C156.37 269.49 155.19 269.49 155.16 270.25Z" />
				</g>
				<g id="&lt;Group&gt;">
					<path id="&lt;Path&gt;" class="shp2" d="M150.62 270.55C150.16 272.64 150.32 274.7 150.37 276.83C150.46 280.47 150.31 284.12 150.3 287.77C150.28 294.12 151.62 300.41 151.51 306.72C151.5 307.49 152.68 307.49 152.7 306.72C152.8 300.86 151.54 295.03 151.49 289.13C151.46 285.94 151.52 282.75 151.55 279.56C151.57 276.71 151.14 273.67 151.76 270.87C151.93 270.12 150.79 269.81 150.62 270.55Z" />
				</g>
				<g id="&lt;Group&gt;">
					<path id="&lt;Path&gt;" class="shp2" d="M145.84 269.41C144.7 274.9 145.61 280.88 145.53 286.45C145.45 292.59 145.41 298.81 146.75 304.83C146.91 305.57 148.05 305.26 147.89 304.52C146.57 298.59 146.65 292.49 146.72 286.45C146.78 281.01 145.87 275.08 146.98 269.73C147.13 268.98 145.99 268.66 145.84 269.41Z" />
				</g>
				<g id="&lt;Group&gt;">
					<path id="&lt;Path&gt;" class="shp2" d="M141.48 270.02C141.49 276.39 141.6 282.76 141.68 289.13C141.74 294.29 141.41 299.6 142.87 304.6C143.09 305.33 144.23 305.02 144.01 304.29C142.47 298.99 142.91 293.23 142.84 287.77C142.77 281.85 142.67 275.94 142.67 270.02C142.67 269.26 141.48 269.26 141.48 270.02Z" />
				</g>
				<g id="&lt;Group&gt;">
					<path id="&lt;Path&gt;" class="shp2" d="M137.86 267.82C137.36 269.67 137.56 271.53 137.61 273.43C137.69 276.45 137.66 279.47 137.67 282.48C137.7 289.12 137.39 295.76 137.38 302.39C137.38 303.16 138.56 303.16 138.56 302.39C138.58 296.62 138.78 290.84 138.85 285.07C138.88 282.05 138.83 279.03 138.8 276.02C138.78 273.48 138.33 270.6 139 268.13C139.2 267.39 138.06 267.08 137.86 267.82Z" />
				</g>
				<g id="&lt;Group&gt;">
					<path id="&lt;Path&gt;" class="shp2" d="M134.67 267.59C134.02 269.59 134.09 271.59 134.02 273.67C133.91 277.21 133.7 280.74 133.68 284.29C133.65 287.85 133.85 291.41 134.1 294.96C134.27 297.32 134.03 300.1 135.18 302.24C135.54 302.91 136.57 302.31 136.2 301.64C134.91 299.24 135.27 294.96 135.1 292.27C134.93 289.61 134.87 286.95 134.86 284.29C134.85 281.63 134.96 278.97 135.07 276.32C135.19 273.59 134.96 270.52 135.81 267.9C136.04 267.17 134.9 266.87 134.67 267.59Z" />
				</g>
				<g id="&lt;Group&gt;">
					<path id="&lt;Path&gt;" class="shp2" d="M131.23 266.83C131.21 273.09 131.06 279.34 130.98 285.59C130.92 290.54 130.59 295.56 132.39 300.27C132.66 300.98 133.8 300.67 133.53 299.96C131.65 295.03 132.11 289.71 132.18 284.55C132.25 278.64 132.4 272.74 132.41 266.83C132.41 266.07 131.23 266.07 131.23 266.83Z" />
				</g>
				<g id="&lt;Group&gt;">
					<path id="&lt;Path&gt;" class="shp2" d="M129.17 264.55C128.6 270.88 127.43 277.13 127.06 283.47C126.77 288.45 126.1 293.56 127.37 298.45C127.56 299.19 128.71 298.87 128.51 298.13C127.27 293.35 127.98 288.34 128.25 283.47C128.59 277.13 129.78 270.88 130.36 264.55C130.43 263.79 129.24 263.8 129.17 264.55Z" />
				</g>
				<g id="&lt;Group&gt;">
					<path id="&lt;Path&gt;" class="shp2" d="M125.55 264.17C124.08 274.27 123.5 284.44 123.48 294.64C123.47 295.41 124.66 295.41 124.66 294.64C124.68 284.55 125.23 274.48 126.69 264.48C126.8 263.74 125.66 263.42 125.55 264.17Z" />
				</g>
				<g id="&lt;Group&gt;">
					<path id="&lt;Path&gt;" class="shp2" d="M124.56 261.4C120.41 265.79 122.48 273.77 122.56 279.14C122.58 279.91 123.76 279.91 123.75 279.14C123.67 274.17 121.6 266.25 125.4 262.24C125.92 261.68 125.09 260.84 124.56 261.4Z" />
				</g>
				<g id="&lt;Group&gt;">
					<path id="&lt;Path&gt;" class="shp2" d="M138.01 306.46C139.48 307.93 141.62 307.8 143.51 308.21C144.26 308.37 144.57 307.23 143.83 307.07C142.2 306.72 140.11 306.88 138.85 305.62C138.31 305.08 137.47 305.92 138.01 306.46Z" />
				</g>
				<g id="&lt;Group&gt;">
					<path id="&lt;Path&gt;" class="shp2" d="M143.06 306.9C141.59 306.14 140.55 305.62 138.92 305.86C138.32 305.94 138.38 306.87 138.92 307C141.04 307.5 143.16 307.95 145.24 308.61C145.98 308.84 146.26 307.72 145.55 307.46C143.77 306.81 142.16 306.47 140.27 306.56C139.75 306.58 139.48 307.18 139.85 307.57C141.3 309.08 143.18 309.32 145.2 309.42C145.15 309.03 145.1 308.65 145.05 308.26C143.39 308.49 142.07 308.19 140.59 308.99C140.16 309.23 140.26 309.76 140.59 310.02C142.1 311.17 143.82 311.1 145.64 311.35C145.7 310.96 145.75 310.58 145.8 310.19C144.72 310.24 143.64 310.24 142.55 310.25C142.14 310.25 141.76 310.76 142.04 311.14C143.21 312.7 144.85 313.14 146.65 313.75C146.71 313.36 146.76 312.97 146.81 312.59C145.55 312.74 144.3 312.75 143.03 312.82C142.51 312.84 142.25 313.44 142.61 313.83C143.64 314.92 144.86 315.13 146.27 315.52C146.33 315.13 146.38 314.74 146.43 314.35C145.31 314.33 144.22 314.33 143.1 314.41C142.64 314.44 142.25 315.06 142.68 315.42C143.81 316.36 144.88 316.77 146.3 317.16C146.35 316.78 146.41 316.39 146.46 316C145.04 316.16 144.13 316.04 143.05 317.01C142.81 317.23 142.83 317.63 143.05 317.85C144.12 318.92 145.13 319.08 146.61 319.33C146.66 318.94 146.71 318.55 146.76 318.16C145.48 318.22 144.85 318.38 143.96 319.28C143.79 319.46 143.72 319.79 143.87 320C144.79 321.28 145.79 321.87 147.2 322.57C147.2 322.23 147.2 321.89 147.2 321.55C145.9 322.13 144.93 322.09 144.08 323.26C143.86 323.57 144.09 324.04 144.44 324.13C145.47 324.4 146.3 324.45 147.38 324.37C148.05 324.33 148.19 323.42 147.54 323.21C146.2 322.78 146.53 322.85 145.13 322.77C145.13 323.16 145.13 323.56 145.13 323.95C146.29 323.99 147.24 323.95 148.36 323.69C148.77 323.59 148.96 322.99 148.62 322.7C147.31 321.57 145.88 321.19 144.24 320.68C144.24 321.06 144.24 321.44 144.24 321.82C144.65 321.7 145.05 321.58 145.46 321.45C145.88 321.33 146.05 320.78 145.72 320.46C144.51 319.27 142.91 318.61 141.81 317.29C141.77 317.6 141.73 317.91 141.69 318.22C142.32 317.69 143.04 317.31 143.84 317.08C144.19 316.94 144.39 316.57 144.19 316.21C143.27 314.56 142.04 313.2 140.88 311.72C140.69 312.05 140.49 312.38 140.3 312.71C140.74 312.75 141.15 312.86 141.55 313.06C142.15 313.29 142.47 312.48 142.12 312.07C141.47 311.31 140.81 310.76 139.99 310.19C139.84 310.55 139.69 310.91 139.54 311.27C140.98 311.8 142.32 312.1 143.84 312.17C144.49 312.2 144.57 311.39 144.14 311.07C143.01 310.21 141.82 309.59 140.55 308.96C140.45 309.33 140.35 309.7 140.25 310.07C143.99 310.09 147.53 311.05 151.11 312.05C151.8 312.24 152.07 311.35 151.57 310.97C150 309.78 148.24 309.1 146.47 308.26C146.32 308.62 146.17 308.98 146.02 309.34C148.82 309.8 151.6 310.34 154.36 311.04C154.42 310.65 154.47 310.26 154.52 309.87C152.03 310.05 149.8 309.39 147.53 308.46C147.53 308.84 147.53 309.23 147.53 309.61C150.41 308.94 153.14 310.5 155.87 311.2C155.92 310.81 155.97 310.43 156.02 310.04C153.83 309.78 151.81 309.31 149.62 309.78C149.14 309.88 149.02 310.64 149.48 310.86C151.78 311.95 154.12 311.64 156.59 312.04C156.64 311.65 156.7 311.26 156.75 310.87C153.36 311 150 310.82 146.64 311.36C145.95 311.47 146.17 312.48 146.8 312.52C150.2 312.71 153.54 311.57 156.92 312.29C156.92 311.91 156.92 311.53 156.92 311.15C153.74 311.99 150.47 311.71 147.24 312.12C146.62 312.19 146.37 313.11 147.08 313.28C149.78 313.92 152.52 313.91 155.26 314.22C155.21 313.83 155.16 313.44 155.11 313.06C152.07 313.51 149.07 313.5 146.15 314.56C145.53 314.79 145.63 315.68 146.31 315.72C149.25 315.88 152.09 315.78 154.97 315.22C155.62 315.1 155.48 313.98 154.82 314.06C152.08 314.41 149.51 315.13 146.98 316.23C146.43 316.47 146.72 317.36 147.28 317.34C149.51 317.25 151.63 316.74 153.84 316.44C153.79 316.05 153.74 315.67 153.69 315.28C151.21 315.74 148.67 315.96 146.52 317.38C146.07 317.68 146.19 318.54 146.82 318.48C149.5 318.25 152.12 317.73 154.79 317.41C154.73 317.02 154.68 316.64 154.63 316.25C152.25 317.14 149.77 317.59 147.33 318.26C146.8 318.4 146.73 319.29 147.33 319.4C150.33 319.91 153.33 318.94 156.31 319.63C156.26 319.27 156.21 318.91 156.17 318.55C153.44 319.93 150.32 319.61 147.4 320.27C146.74 320.42 146.89 321.44 147.56 321.43C150.27 321.39 152.94 320.91 155.65 321.02C155.55 320.65 155.45 320.28 155.35 319.92C152.37 321.33 148.99 321.1 145.95 322.37C145.46 322.58 145.32 323.36 145.95 323.52C149.22 324.3 152.29 322.97 155.58 323.1C155.48 322.73 155.38 322.36 155.28 321.99C152.83 323.25 150.08 323.31 147.48 324.12C146.98 324.28 146.87 325.17 147.48 325.27C151.59 325.86 155.54 324.98 159.63 324.6C159.57 324.21 159.52 323.82 159.47 323.43C157.32 323.76 155.19 324.14 153.04 324.46C152.47 324.54 152.48 325.5 153.04 325.6C156.17 326.11 159.29 325.81 162.44 325.8C163.23 325.79 163.18 324.7 162.44 324.61C160.78 324.41 159.12 324.15 157.45 323.92C157.4 324.3 157.35 324.69 157.29 325.08C160.43 325.12 163.57 325.1 166.71 325.1C167.47 325.09 167.47 323.92 166.71 323.91C164.23 323.87 161.89 323.76 159.48 324.4C158.9 324.55 158.93 325.37 159.48 325.54C162.5 326.42 165.6 326.16 168.7 325.96C169.33 325.92 169.55 324.9 168.86 324.8C165.06 324.26 161.21 324.39 157.43 323.73C157.47 324.09 157.52 324.46 157.57 324.82C160.71 323.47 164.15 323.63 167.47 323.06C168.16 322.94 167.95 321.92 167.31 321.9C162.92 321.71 157.79 323.08 153.74 320.85C153.7 321.21 153.65 321.57 153.6 321.93C158.11 320.92 162.77 321.57 167.27 320.5C167.82 320.37 167.86 319.47 167.27 319.36C163.25 318.63 159.22 318.76 155.15 318.93C155.2 319.32 155.26 319.71 155.31 320.09C159 319.39 163.49 317.29 167.23 318.41C167.18 318.05 167.13 317.69 167.09 317.33C163.64 318.91 159.76 318.65 156.35 320.35C155.8 320.63 156.1 321.44 156.65 321.46C159.06 321.52 161.27 320.84 163.64 320.52C163.72 321.11 163.8 321.7 163.88 322.29C163.25 322.7 162.58 323 161.86 323.21C160.87 323.54 159.84 323.56 158.87 323.19C158.96 323.52 159.04 323.85 159.13 324.18C161.84 321.86 165.39 321.03 168.17 318.8C168.6 318.46 168.22 317.81 167.75 317.79C163.08 317.61 158.51 318.81 153.84 318.61C153.94 318.98 154.04 319.35 154.14 319.71C157.84 318.08 161.96 318.43 165.76 317.14C166.42 316.91 166.25 316.05 165.6 315.98C162.5 315.6 159.47 315.78 156.38 316.09C156.43 316.47 156.48 316.86 156.53 317.25C160.56 316.51 164.58 315.77 168.58 314.88C169.34 314.71 169 313.63 168.26 313.73C164.71 314.26 161.15 314.53 157.69 315.54C157.01 315.74 157.22 316.63 157.85 316.7C161.4 317.14 164.84 315.8 168.3 315.25C168.97 315.14 168.8 314.07 168.15 314.08C163.6 314.2 159.14 315.26 154.59 315.25C154.69 315.62 154.79 315.99 154.89 316.36C158.32 314.56 162.34 314.73 166.08 314.16C166.78 314.05 166.56 313.03 165.93 312.99C161.54 312.74 157.16 312.7 152.77 312.76C152.77 313.15 152.77 313.55 152.77 313.94C157.42 313.8 162.05 313.77 166.65 313.09C167.31 312.99 167.16 311.88 166.5 311.93C162.04 312.26 157.36 313.31 153 311.87C153.05 312.23 153.1 312.59 153.14 312.95C155.5 311.45 158.36 312.09 160.61 310.29C161 309.97 160.68 309.23 160.19 309.28C159.85 309.31 159.51 309.34 159.17 309.38C158.54 309.44 158.32 310.38 159.01 310.54C161.86 311.21 164.7 311.01 167.61 310.96C168.37 310.95 168.37 309.78 167.61 309.78C164.61 309.76 161.66 309.68 158.69 310.08C158.12 310.16 158.12 311.14 158.69 311.22C165.32 312.16 172.01 311.11 178.64 312.03C178.69 311.64 178.74 311.25 178.79 310.86C175.67 311.11 172.55 311.14 169.41 311.15C168.65 311.16 168.65 312.33 169.41 312.34C173.2 312.36 176.97 311.93 180.76 312.17C180.66 311.8 180.56 311.43 180.46 311.06C177.17 312.77 173.37 312.7 169.99 314.17C169.53 314.36 169.63 315.18 170.13 315.25C173.27 315.68 176.3 315.37 179.37 314.62C180.04 314.45 179.86 313.49 179.21 313.46C175.53 313.27 171.94 314.01 168.28 314.18C168.38 314.55 168.48 314.91 168.58 315.28C169.65 314.62 170.45 314.03 171.28 313.09C171.51 312.82 171.52 312.33 171.16 312.16C169.52 311.38 168.04 311.54 166.34 312.12C165.88 312.28 165.73 312.94 166.2 313.2C170.16 315.38 174.74 314.29 179.04 314.87C179.09 314.49 179.14 314.1 179.2 313.71C175.7 314.13 172.17 314.18 168.69 314.78C168 314.9 168.21 315.91 168.85 315.94C172.18 316.09 175.44 315.3 178.76 315.71C178.66 315.34 178.56 314.97 178.46 314.6C175.41 316.34 171.82 316.35 168.56 317.54C167.95 317.76 168.03 318.69 168.72 318.7C172.25 318.73 175.72 318.07 179.25 318.2C179.15 317.83 179.05 317.47 178.95 317.1C175.44 318.68 171.54 318.71 167.97 320.08C167.48 320.27 167.33 321.11 167.97 321.22C171.3 321.85 174.57 321.39 177.89 320.93C177.79 320.55 177.68 320.17 177.58 319.79C174.39 320.36 171.07 320.76 168.23 322.42C167.81 322.67 167.85 323.4 168.37 323.5C171.57 324.15 174.55 322.98 177.77 323.1C177.71 322.72 177.66 322.33 177.61 321.94C175.06 322.8 172.45 323.26 170.25 324.88C169.86 325.17 169.85 325.83 170.39 325.97C172.97 326.64 175.51 326.06 178.13 326.02C178.08 325.63 178.02 325.25 177.97 324.86C174.5 326.23 170.74 326.12 167.17 327.11C166.54 327.28 166.65 328.31 167.32 328.27C169.18 328.14 170.96 327.87 172.78 327.51C173.49 327.38 173.24 326.42 172.63 326.35C170.13 326.07 167.65 326.17 165.15 326.19C164.38 326.2 164.38 327.37 165.15 327.38C170.87 327.44 176.57 328.04 182.25 327.04C182.93 326.92 182.75 325.88 182.1 325.88C180.63 325.88 179.36 326.14 177.97 326.63C177.47 326.8 177.34 327.67 177.97 327.77C180.98 328.23 183.89 327.79 186.89 327.38C186.78 327 186.68 326.62 186.57 326.24C183.71 326.78 180.83 326.98 177.93 327.18C177.17 327.23 177.16 328.35 177.93 328.36C181.36 328.41 184.73 327.5 187.88 326.18C188.5 325.92 188.41 325.1 187.72 325.02C183.74 324.58 179.79 324.67 175.8 325.07C175.06 325.15 175.03 326.26 175.8 326.26C180.24 326.23 184.69 325.65 188.89 324.17C189.5 323.95 189.42 323.02 188.73 323.01C184.66 322.98 180.69 323.33 176.76 324.39C176.02 324.59 176.33 325.7 177.07 325.53C181.9 324.44 186.82 323.79 191.43 321.92C192.13 321.64 191.88 320.64 191.12 320.78C187.19 321.51 183.25 321.98 179.27 322.29C179.37 322.65 179.47 323.02 179.57 323.39C183.13 321.62 187.08 321.11 190.74 319.64C191.3 319.41 191.3 318.4 190.58 318.47C186.95 318.84 183.6 320.17 180.1 321.11C180.25 321.47 180.41 321.83 180.56 322.19C183.71 320.35 187.13 319.23 190.56 318.02C190.45 317.64 190.35 317.26 190.24 316.88C186.66 318.26 181.48 320.73 177.63 319.52C177.67 319.88 177.72 320.24 177.77 320.6C181.04 318.31 184.95 317.6 188.73 316.53C188.62 316.15 188.52 315.77 188.41 315.39C184.47 316.69 180.46 317.72 176.38 318.46C176.57 318.79 176.76 319.12 176.95 319.45C180.28 316.53 185.15 315.95 189.24 314.62C189.97 314.39 189.67 313.31 188.93 313.48C184.84 314.45 180.78 315.48 176.86 317.03C176.16 317.31 176.42 318.31 177.18 318.17C181.93 317.28 186.52 315.82 191.18 314.56C191.81 314.4 191.7 313.33 191.02 313.4C187.58 313.77 184.31 314.99 180.85 315.2C180.9 315.59 180.95 315.98 181.01 316.36C184.55 314.99 188.43 315.02 191.89 313.4C192.36 313.18 192.23 312.43 191.75 312.32C187.54 311.3 183.45 312.57 179.28 313.22C179.38 313.6 179.49 313.98 179.59 314.36C183.52 313.42 187.46 312.59 191.34 311.45C192.08 311.23 191.76 310.17 191.02 310.31C186.57 311.15 182.16 312.14 177.67 312.76C177.77 313.14 177.88 313.52 177.98 313.9C180.19 313.17 182.39 312.6 184.7 312.28C184.55 311.92 184.39 311.56 184.24 311.2C184.07 311.28 183.89 311.37 183.72 311.46C183.04 311.8 183.64 312.82 184.32 312.48C184.49 312.39 184.66 312.3 184.84 312.22C185.49 311.89 184.99 311.05 184.38 311.14C182.08 311.46 179.88 312.03 177.67 312.76C176.93 313.01 177.25 314 177.98 313.9C182.47 313.28 186.89 312.29 191.34 311.45C191.23 311.07 191.13 310.69 191.02 310.31C187.15 311.45 183.2 312.28 179.28 313.22C178.52 313.4 178.85 314.47 179.59 314.36C183.53 313.74 187.45 312.5 191.44 313.46C191.39 313.1 191.34 312.74 191.3 312.38C187.93 313.96 184.14 313.88 180.69 315.22C180.11 315.45 180.13 316.43 180.85 316.38C184.32 316.17 187.57 314.95 191.02 314.59C190.97 314.2 190.92 313.81 190.86 313.42C186.21 314.68 181.61 316.14 176.86 317.03C176.97 317.41 177.07 317.79 177.18 318.17C181.1 316.62 185.15 315.59 189.24 314.62C189.14 314.24 189.03 313.86 188.93 313.48C184.61 314.88 179.64 315.52 176.11 318.62C175.63 319.04 176.16 319.7 176.69 319.6C180.78 318.86 184.78 317.83 188.73 316.53C189.44 316.29 189.15 315.18 188.41 315.39C184.53 316.49 180.53 317.23 177.17 319.58C176.75 319.87 176.8 320.5 177.31 320.66C181.47 321.96 186.74 319.49 190.56 318.02C191.26 317.75 190.97 316.63 190.24 316.88C186.71 318.13 183.2 319.27 179.96 321.17C179.38 321.51 179.77 322.43 180.42 322.25C183.81 321.34 187.06 320.01 190.58 319.66C190.53 319.27 190.48 318.88 190.42 318.5C186.67 320.01 182.62 320.56 178.97 322.37C178.46 322.62 178.69 323.51 179.27 323.47C183.36 323.16 187.4 322.67 191.43 321.92C191.33 321.54 191.22 321.16 191.12 320.78C186.51 322.65 181.58 323.3 176.76 324.39C176.86 324.77 176.97 325.15 177.07 325.53C180.9 324.5 184.78 324.16 188.73 324.19C188.68 323.81 188.62 323.42 188.57 323.03C184.47 324.48 180.14 325.05 175.8 325.07C175.8 325.47 175.8 325.86 175.8 326.26C179.79 325.86 183.74 325.76 187.72 326.2C187.67 325.82 187.62 325.43 187.57 325.04C184.52 326.31 181.26 327.23 177.93 327.18C177.93 327.57 177.93 327.97 177.93 328.36C180.94 328.16 183.92 327.94 186.89 327.38C187.65 327.23 187.31 326.13 186.57 326.24C183.78 326.62 181.1 327.06 178.28 326.63C178.28 327.01 178.28 327.39 178.28 327.77C179.61 327.3 180.64 327.06 182.1 327.06C182.04 326.67 181.99 326.29 181.94 325.9C176.37 326.88 170.76 326.26 165.15 326.19C165.15 326.59 165.15 326.98 165.15 327.38C167.65 327.35 170.13 327.25 172.63 327.54C172.57 327.15 172.52 326.76 172.47 326.37C170.76 326.7 169.06 326.97 167.32 327.08C167.38 327.47 167.43 327.86 167.48 328.25C171.07 327.26 174.8 327.37 178.28 326C178.87 325.77 178.84 324.83 178.13 324.84C175.63 324.88 173.18 325.47 170.71 324.83C170.75 325.19 170.8 325.55 170.85 325.91C172.95 324.35 175.49 323.9 177.92 323.08C178.56 322.87 178.45 321.95 177.77 321.92C174.7 321.8 171.74 322.98 168.68 322.36C168.73 322.72 168.78 323.08 168.83 323.44C171.57 321.84 174.82 321.48 177.89 320.93C178.65 320.79 178.31 319.68 177.58 319.79C174.46 320.22 171.41 320.67 168.28 320.08C168.28 320.46 168.28 320.84 168.28 321.22C171.95 319.81 175.94 319.75 179.55 318.12C180.12 317.86 179.79 317.04 179.25 317.02C175.72 316.88 172.25 317.55 168.72 317.52C168.77 317.9 168.83 318.29 168.88 318.68C172.24 317.46 175.91 317.41 179.06 315.63C179.62 315.31 179.31 314.59 178.76 314.52C175.44 314.11 172.18 314.9 168.85 314.76C168.9 315.15 168.95 315.53 169 315.92C172.38 315.33 175.8 315.31 179.2 314.9C179.8 314.82 180.07 313.83 179.35 313.73C175.23 313.17 170.58 314.26 166.8 312.18C166.75 312.54 166.71 312.9 166.66 313.26C167.89 312.72 169.19 312.69 170.56 313.18C170.52 312.87 170.48 312.56 170.44 312.25C169.75 313.09 168.93 313.76 167.98 314.26C167.5 314.55 167.67 315.39 168.28 315.36C171.94 315.19 175.53 314.45 179.21 314.64C179.16 314.25 179.1 313.87 179.05 313.48C176.2 314.18 173.36 314.51 170.44 314.11C170.49 314.47 170.54 314.83 170.58 315.19C173.98 313.72 177.75 313.8 181.06 312.09C181.62 311.8 181.31 311.02 180.76 310.98C176.97 310.75 173.2 311.17 169.41 311.15C169.41 311.55 169.41 311.94 169.41 312.34C172.55 312.32 175.67 312.29 178.79 312.05C179.41 312 179.65 310.98 178.95 310.88C172.32 309.97 165.63 311.02 159 310.08C159 310.46 159 310.84 159 311.22C161.87 310.83 164.72 310.95 167.61 310.96C167.61 310.57 167.61 310.17 167.61 309.78C164.8 309.83 162.08 310.05 159.32 309.4C159.27 309.78 159.22 310.17 159.17 310.56C159.51 310.53 159.85 310.5 160.19 310.46C160.05 310.13 159.91 309.79 159.77 309.45C157.65 311.15 154.79 310.5 152.55 311.93C152.1 312.21 152.2 312.85 152.69 313.01C157.16 314.49 161.92 313.46 166.5 313.11C166.44 312.72 166.39 312.34 166.34 311.95C161.84 312.62 157.31 312.61 152.77 312.76C152.01 312.78 152.01 313.95 152.77 313.94C157.16 313.89 161.54 313.93 165.93 314.18C165.88 313.79 165.82 313.4 165.77 313.02C161.91 313.61 157.83 313.47 154.29 315.33C153.76 315.61 154.02 316.44 154.59 316.44C159.15 316.45 163.6 315.39 168.15 315.27C168.09 314.88 168.04 314.49 167.99 314.11C164.63 314.65 161.29 315.94 157.85 315.52C157.9 315.91 157.95 316.3 158.01 316.68C161.46 315.67 165.03 315.4 168.58 314.88C168.47 314.5 168.37 314.12 168.26 313.73C164.27 314.63 160.24 315.37 156.22 316.11C155.56 316.23 155.71 317.34 156.38 317.27C159.47 316.96 162.5 316.78 165.6 317.16C165.55 316.77 165.49 316.38 165.44 316C161.54 317.32 157.35 317.01 153.54 318.69C152.97 318.95 153.31 319.77 153.84 319.79C158.51 319.99 163.08 318.8 167.75 318.97C167.61 318.64 167.47 318.3 167.33 317.96C164.56 320.19 161.01 321.01 158.29 323.34C157.93 323.66 158.17 324.19 158.56 324.33C161.57 325.46 166.21 323.47 166.55 320.06C166.57 319.83 166.35 319.52 166.11 319.49C162.86 319.04 159.89 320.36 156.65 320.27C156.75 320.64 156.85 321.01 156.95 321.38C160.35 319.68 164.24 319.93 167.68 318.35C168.18 318.13 167.99 317.41 167.54 317.27C163.53 316.06 158.92 318.2 154.99 318.95C154.33 319.08 154.49 320.14 155.15 320.11C159.11 319.95 163.04 319.79 166.96 320.5C166.96 320.12 166.96 319.74 166.96 319.36C162.45 320.43 157.8 319.78 153.29 320.79C152.79 320.91 152.71 321.63 153.15 321.87C157.45 324.24 162.65 322.88 167.31 323.08C167.26 322.69 167.21 322.3 167.16 321.92C163.69 322.51 160.25 322.4 156.97 323.79C156.51 323.99 156.63 324.79 157.11 324.88C160.9 325.53 164.74 325.4 168.54 325.94C168.6 325.55 168.65 325.17 168.7 324.78C165.71 324.97 162.71 325.25 159.79 324.4C159.79 324.78 159.79 325.16 159.79 325.54C162.09 324.94 164.36 325.06 166.71 325.1C166.71 324.7 166.71 324.31 166.71 323.91C163.57 323.92 160.43 323.94 157.29 323.9C156.64 323.89 156.47 324.96 157.14 325.06C158.91 325.31 160.67 325.58 162.44 325.8C162.44 325.4 162.44 325.01 162.44 324.61C159.4 324.63 156.38 324.95 153.35 324.46C153.35 324.84 153.35 325.22 153.35 325.6C155.5 325.28 157.64 324.9 159.78 324.57C160.44 324.48 160.29 323.35 159.63 323.41C155.67 323.79 151.78 324.7 147.8 324.12C147.8 324.5 147.8 324.88 147.8 325.27C150.5 324.42 153.33 324.32 155.88 323.02C156.43 322.73 156.13 321.93 155.58 321.91C152.43 321.79 149.39 323.13 146.26 322.37C146.26 322.76 146.26 323.14 146.26 323.52C149.4 322.2 152.87 322.39 155.95 320.94C156.52 320.67 156.2 319.86 155.65 319.83C152.94 319.73 150.27 320.21 147.56 320.25C147.61 320.63 147.66 321.02 147.71 321.41C150.78 320.71 153.9 321.02 156.76 319.57C157.22 319.34 157.11 318.6 156.62 318.49C153.63 317.79 150.66 318.77 147.64 318.26C147.64 318.64 147.64 319.02 147.64 319.4C150.09 318.73 152.57 318.28 154.94 317.39C155.52 317.17 155.49 316.14 154.79 316.23C152.12 316.55 149.49 317.07 146.82 317.3C146.92 317.67 147.02 318.03 147.12 318.4C149.17 317.05 151.64 316.85 154 316.42C154.65 316.3 154.51 315.17 153.84 315.26C151.65 315.55 149.5 316.07 147.28 316.15C147.38 316.52 147.48 316.89 147.58 317.26C149.93 316.23 152.27 315.56 154.82 315.24C154.76 314.86 154.71 314.47 154.66 314.08C151.87 314.62 149.14 314.69 146.31 314.54C146.36 314.92 146.42 315.31 146.47 315.7C149.36 314.65 152.41 314.65 155.42 314.2C156.14 314.09 155.87 313.1 155.26 313.03C152.63 312.74 149.98 312.75 147.39 312.14C147.34 312.52 147.29 312.91 147.24 313.3C150.58 312.88 153.95 313.16 157.23 312.29C157.78 312.14 157.82 311.27 157.23 311.15C153.74 310.41 150.32 311.53 146.8 311.33C146.85 311.72 146.91 312.11 146.96 312.5C150.21 311.98 153.47 312.18 156.75 312.06C157.39 312.03 157.59 311 156.91 310.89C154.63 310.53 152.23 310.86 150.08 309.84C150.03 310.2 149.99 310.56 149.94 310.92C151.98 310.48 153.99 310.98 156.02 311.22C156.7 311.3 156.81 310.22 156.18 310.06C153.17 309.29 150.37 307.74 147.21 308.46C146.59 308.61 146.72 309.4 147.21 309.61C149.59 310.57 151.94 311.24 154.52 311.06C155.16 311.01 155.36 310.06 154.68 309.89C151.92 309.2 149.14 308.66 146.33 308.2C145.72 308.1 145.22 308.97 145.87 309.28C147.64 310.12 149.4 310.8 150.97 311.99C151.12 311.63 151.27 311.27 151.42 310.91C147.73 309.88 144.1 308.91 140.25 308.88C139.68 308.88 139.41 309.72 139.95 309.99C141.22 310.61 142.41 311.23 143.55 312.09C143.65 311.72 143.74 311.35 143.84 310.99C142.35 310.92 141.22 310.63 139.85 310.13C139.18 309.89 138.88 310.85 139.4 311.21C140.14 311.66 140.77 312.22 141.28 312.91C141.48 312.58 141.67 312.25 141.86 311.92C141.47 311.72 141.05 311.6 140.62 311.57C140.01 311.46 139.67 312.08 140.04 312.56C141.13 313.95 142.3 315.26 143.17 316.81C143.29 316.52 143.41 316.23 143.52 315.94C142.63 316.28 141.88 316.63 141.1 317.2C140.77 317.44 140.72 317.82 140.98 318.13C142.09 319.48 143.65 320.08 144.89 321.3C144.97 320.97 145.06 320.64 145.15 320.31C144.74 320.44 144.33 320.56 143.93 320.68C143.36 320.85 143.36 321.65 143.93 321.82C145.31 322.25 146.62 322.54 147.78 323.54C147.87 323.21 147.96 322.88 148.04 322.55C147.08 322.78 146.11 322.86 145.13 322.77C144.36 322.74 144.37 323.91 145.13 323.95C145.83 324.08 146.53 324.22 147.23 324.35C147.28 323.96 147.33 323.58 147.38 323.19C146.5 323.32 145.62 323.25 144.75 322.99C144.87 323.28 144.99 323.57 145.1 323.86C145.61 323.15 147 322.93 147.8 322.57C148.2 322.4 148.17 321.74 147.8 321.55C146.7 321.32 146.35 320.59 146.76 319.35C147.4 319.32 147.61 318.3 146.92 318.18C146.1 318.05 144.75 317.38 146.46 317.18C147.09 317.11 147.3 316.21 146.62 316.02C145.49 315.78 144.45 315.3 143.52 314.59C143.38 314.92 143.24 315.26 143.1 315.6C144.22 315.52 145.31 315.52 146.43 315.54C147.11 315.55 147.23 314.55 146.59 314.38C145.46 314.07 144.32 313.92 143.45 312.99C143.31 313.33 143.17 313.66 143.03 314C144.3 313.94 145.55 313.92 146.81 313.77C147.46 313.69 147.63 312.83 146.97 312.61C145.54 312.13 144.02 311.82 143.06 310.54C142.89 310.84 142.72 311.13 142.55 311.43C143.64 311.42 144.72 311.42 145.8 311.37C146.43 311.34 146.65 310.3 145.96 310.21C144.3 309.98 142.59 310.07 141.19 308.99C141.19 309.34 141.19 309.68 141.19 310.02C142.32 309.4 144.06 309.58 145.36 309.4C146.05 309.3 145.84 308.27 145.2 308.24C143.53 308.16 141.96 308.05 140.69 306.73C140.55 307.07 140.41 307.4 140.27 307.74C142.04 307.66 143.6 308.01 145.24 308.61C145.34 308.22 145.45 307.84 145.55 307.46C143.47 306.8 141.35 306.36 139.23 305.86C139.23 306.24 139.23 306.62 139.23 307C140.41 307.01 141.49 307.32 142.46 307.92C143.14 308.27 143.74 307.25 143.06 306.9Z" />
				</g>
				<g id="&lt;Group&gt;">
					<path id="&lt;Path&gt;" class="shp2" d="M192.15 314.36C195.92 313.42 199.75 313.22 203.6 312.96C204.23 312.92 204.45 311.91 203.76 311.8C198.1 310.92 192.48 311.74 186.85 312.45C186.9 312.84 186.95 313.23 187.01 313.61C192.98 312.3 198.96 310.79 205.12 311.24C205.07 310.85 205.02 310.47 204.96 310.08C200.41 311.54 195.67 312.27 191.17 313.92C190.56 314.14 190.63 315.07 191.33 315.08C195.76 315.13 200.06 314.07 204.29 312.82C204.91 312.64 204.81 311.57 204.13 311.66C198.92 312.35 193.56 312.92 188.81 315.34C188.39 315.56 188.45 316.34 188.96 316.42C193.61 317.12 198.13 315.81 202.78 315.75C202.73 315.36 202.67 314.97 202.62 314.58C198.4 316.26 193.83 316.63 189.59 318.24C189 318.47 189.04 319.42 189.75 319.4C194.17 319.32 198.3 317.34 202.74 317.6C202.64 317.23 202.54 316.86 202.44 316.49C198.76 319.2 193.88 319.33 190.44 322.46C190.14 322.74 190.26 323.38 190.7 323.45C194.39 323.99 197.84 322.71 201.33 321.68C201.23 321.3 201.12 320.92 201.02 320.54C196.9 322.24 192.66 323.49 188.34 324.58C187.59 324.77 187.91 325.86 188.65 325.72C191.58 325.18 194.45 324.56 197.25 323.56C197.97 323.31 197.69 322.24 196.94 322.42C192.97 323.39 188.72 323.68 185.14 325.82C184.64 326.13 184.85 326.92 185.44 326.93C189.14 326.96 192.65 325.87 196.3 325.44C196.25 325.05 196.19 324.67 196.14 324.28C193.42 324.77 190.74 325 188.18 326.09C187.73 326.29 187.84 327.1 188.33 327.18C192.88 327.89 197.3 326.58 201.83 326.21C202.58 326.15 202.6 325.01 201.83 325.03C199.39 325.1 196.96 325.29 194.52 325.28C193.75 325.27 193.75 326.45 194.52 326.46C197.83 326.5 201.05 326.21 204.3 325.58C204.19 325.2 204.09 324.82 203.98 324.44C200.33 325.39 196.62 326.06 193 327.16C192.49 327.31 192.39 328.22 193 328.3C196.28 328.75 199.23 327.58 202.45 327.13C202.34 326.75 202.24 326.37 202.13 325.99C197.78 327.79 193.12 327.95 188.47 328.02C187.71 328.03 187.71 329.19 188.47 329.2C189.72 329.15 190.96 329.28 192.18 329.59C192.23 329.2 192.28 328.82 192.33 328.43C188.98 328.69 185.74 327.74 182.41 327.51C182.41 327.91 182.41 328.3 182.41 328.7C186.6 328.19 190.75 327.84 194.9 327.1C198.13 326.52 201.75 325.92 204.31 323.71C204.74 323.35 204.36 322.74 203.89 322.7C198.97 322.3 194.24 323.45 189.39 324.06C189.49 324.43 189.59 324.8 189.69 325.17C193.45 322.77 198.06 323.05 202.11 321.38C202.74 321.12 202.62 320.31 201.95 320.22C197.48 319.64 193.08 320.63 188.67 321.26C188.78 321.64 188.88 322.02 188.99 322.4C193.33 321.69 197.46 320.25 201.64 318.91C202.24 318.72 202.17 317.66 201.48 317.75C198.33 318.16 195.5 319.43 192.53 320.5C192.68 320.86 192.84 321.22 192.99 321.58C196.39 319.72 200.12 318.51 203.13 316C203.45 315.73 203.29 315.08 202.86 315.01C199.81 314.54 197.1 315.56 194.2 316.43C194.31 316.81 194.41 317.2 194.52 317.58C199.27 315.98 203.97 314.24 208.58 312.27C209.2 312 208.75 310.99 208.12 311.18C206.28 311.75 204.42 312.26 202.55 312.76C201.82 312.96 202.13 314.1 202.87 313.91C204.73 313.41 206.59 312.89 208.44 312.33C208.29 311.96 208.13 311.6 207.98 311.24C203.46 313.17 198.86 314.87 194.2 316.43C193.49 316.68 193.78 317.8 194.52 317.58C197.15 316.78 199.74 315.72 202.55 316.15C202.46 315.82 202.38 315.49 202.29 315.16C199.37 317.6 195.69 318.76 192.39 320.56C191.81 320.87 192.21 321.87 192.85 321.64C195.7 320.61 198.44 319.33 201.48 318.93C201.43 318.55 201.38 318.16 201.32 317.77C197.14 319.11 193.02 320.55 188.67 321.26C187.91 321.38 188.25 322.5 188.99 322.4C193.3 321.79 197.58 320.84 201.95 321.4C201.9 321.01 201.84 320.63 201.79 320.24C197.65 321.95 192.95 321.69 189.09 324.14C188.64 324.43 188.76 325.33 189.39 325.25C194.23 324.64 198.99 323.49 203.89 323.89C203.75 323.55 203.61 323.21 203.47 322.88C201.09 324.93 197.58 325.4 194.59 325.96C190.55 326.71 186.48 327.02 182.41 327.51C181.66 327.6 181.63 328.64 182.41 328.7C185.77 328.93 188.95 329.88 192.33 329.61C192.96 329.56 193.18 328.6 192.49 328.45C191.13 328.16 189.88 328.03 188.47 328.02C188.47 328.41 188.47 328.8 188.47 329.2C193.22 329.13 198 328.98 202.45 327.13C203.16 326.83 202.89 325.88 202.13 325.99C199.18 326.4 196.34 327.57 193.32 327.16C193.32 327.54 193.32 327.92 193.32 328.3C196.93 327.21 200.64 326.53 204.3 325.58C205.04 325.39 204.72 324.3 203.98 324.44C200.83 325.05 197.72 325.32 194.52 325.28C194.52 325.67 194.52 326.07 194.52 326.46C196.96 326.48 199.39 326.28 201.83 326.21C201.83 325.82 201.83 325.42 201.83 325.03C197.43 325.39 193.06 326.73 188.64 326.03C188.69 326.39 188.73 326.76 188.78 327.12C191.24 326.07 193.86 325.89 196.46 325.42C197.11 325.3 196.96 324.18 196.3 324.26C192.66 324.69 189.13 325.78 185.44 325.74C185.54 326.11 185.64 326.48 185.74 326.85C189.21 324.76 193.39 324.5 197.25 323.56C197.15 323.18 197.04 322.8 196.94 322.42C194.13 323.42 191.26 324.04 188.34 324.58C188.44 324.96 188.55 325.34 188.65 325.72C192.97 324.63 197.21 323.38 201.33 321.68C202.01 321.39 201.77 320.31 201.02 320.54C197.78 321.49 194.46 322.81 191.02 322.31C191.11 322.64 191.19 322.97 191.28 323.3C194.61 320.26 199.45 320.16 203.03 317.52C203.5 317.17 203.35 316.45 202.74 316.41C198.28 316.16 194.18 318.14 189.75 318.22C189.8 318.61 189.85 319 189.91 319.38C194.15 317.77 198.71 317.4 202.94 315.73C203.52 315.49 203.49 314.55 202.78 314.56C198.25 314.63 193.8 315.96 189.27 315.28C189.32 315.64 189.37 316 189.41 316.36C193.96 314.05 199.15 313.51 204.13 312.84C204.08 312.45 204.03 312.07 203.97 311.68C199.85 312.9 195.66 313.95 191.33 313.89C191.38 314.28 191.43 314.67 191.49 315.06C195.98 313.41 200.73 312.68 205.28 311.22C205.93 311.01 205.78 310.11 205.12 310.06C198.85 309.59 192.77 311.14 186.69 312.47C186.05 312.61 186.18 313.72 186.85 313.63C192.35 312.94 197.91 312.08 203.44 312.94C203.5 312.55 203.55 312.16 203.6 311.78C199.64 312.04 195.71 312.25 191.84 313.22C191.1 313.4 191.41 314.55 192.15 314.36Z" />
				</g>
				<g id="&lt;Group&gt;">
					<path id="&lt;Path&gt;" class="shp2" d="M205.44 312.1C210.2 312.23 214.99 311.7 219.65 310.74C220.32 310.61 220.14 309.59 219.49 309.58C214.19 309.48 209.09 310.72 204.08 312.37C203.47 312.57 203.54 313.6 204.23 313.53C209.03 313.09 213.73 311.95 218.55 311.88C218.5 311.49 218.45 311.1 218.4 310.72C214.61 311.83 210.67 312.24 206.91 313.49C206.27 313.7 206.4 314.62 207.07 314.65C211.86 314.9 216.4 313.34 221.11 312.78C221.06 312.4 221 312.01 220.95 311.62C216.49 312.94 211.97 314.04 207.48 315.25C206.74 315.45 207.05 316.58 207.79 316.39C211.77 315.37 215.7 314.25 219.81 313.92C219.76 313.53 219.71 313.15 219.65 312.76C214.27 314.64 208.4 316.89 202.61 316.13C202.71 316.5 202.81 316.86 202.91 317.23C206.46 314.6 211.08 314.56 215.21 313.41C215.74 313.26 215.81 312.37 215.21 312.27C210.46 311.43 204.5 312.68 200.68 315.69C200.28 316.01 200.61 316.73 201.1 316.7C206.34 316.34 211.21 313.91 216.51 314.18C216.41 313.81 216.31 313.44 216.21 313.08C211.5 316.63 205.41 317.18 200.09 319.43C199.44 319.71 199.93 320.65 200.55 320.51C206.15 319.33 211.66 317.77 217.28 316.65C217.12 316.29 216.97 315.93 216.82 315.57C212.31 318.15 207.14 318.98 202.36 320.93C201.67 321.21 201.91 322.24 202.67 322.07C206.7 321.19 210.54 319.62 214.63 318.99C214.48 318.63 214.32 318.27 214.17 317.91C209.89 320.79 204.7 321.71 200.28 324.36C199.72 324.69 200.09 325.67 200.74 325.44C204.83 324 208.98 322.76 213.04 321.25C212.94 320.87 212.83 320.49 212.73 320.1C208.99 321.57 205.36 323.3 201.66 324.86C201.03 325.13 201.48 326.14 202.11 325.95C206.14 324.71 209.98 322.92 214.23 322.61C214.13 322.24 214.03 321.88 213.93 321.51C210.34 323.45 206.3 324.07 202.52 325.54C201.95 325.76 201.97 326.79 202.68 326.7C206.44 326.22 210.03 324.82 213.84 324.78C213.74 324.41 213.64 324.04 213.54 323.68C211.06 325.28 208.25 325.75 205.43 326.4C204.69 326.57 205 327.7 205.75 327.54C209.02 326.83 212.19 325.53 215.59 325.84C215.53 325.45 215.48 325.06 215.43 324.68C212.31 325.94 208.97 326.29 205.75 327.21C205.12 327.39 205.23 328.38 205.91 328.37C207.94 328.33 209.9 327.86 211.92 327.86C211.87 327.47 211.82 327.09 211.76 326.7C208.61 327.46 205.47 327.66 202.26 327.19C202.26 327.57 202.26 327.95 202.26 328.33C203.99 327.99 205.69 327.82 207.45 327.85C207.35 327.48 207.25 327.11 207.15 326.75C204.94 327.72 202.76 328.08 200.39 328.38C200.49 328.75 200.59 329.12 200.69 329.49C202.9 328.06 205.39 327.19 207.51 325.6C207.92 325.29 207.88 324.7 207.37 324.52C205.29 323.76 203.06 324.17 200.92 324.43C199.66 324.58 198.41 324.69 197.14 324.52C194.88 324.2 200.18 321.6 200.73 321.37C201.43 321.07 200.83 320.05 200.13 320.35C198.13 321.19 196.43 322.19 194.99 323.83C194.79 324.06 194.74 324.44 194.99 324.66C198.2 327.55 203.32 324.31 207.05 325.66C207 325.3 206.96 324.94 206.91 324.58C204.8 326.17 202.31 327.04 200.09 328.46C199.64 328.75 199.76 329.65 200.39 329.57C202.94 329.24 205.38 328.81 207.75 327.77C208.31 327.52 207.99 326.68 207.45 326.67C205.57 326.63 203.79 326.83 201.95 327.19C201.39 327.29 201.37 328.24 201.95 328.33C205.37 328.84 208.72 328.65 212.08 327.84C212.74 327.68 212.58 326.68 211.92 326.68C209.89 326.67 207.94 327.15 205.91 327.19C205.96 327.57 206.02 327.96 206.07 328.35C209.29 327.43 212.63 327.08 215.74 325.82C216.36 325.57 216.27 324.72 215.59 324.66C212.07 324.34 208.82 325.67 205.43 326.4C205.54 326.78 205.64 327.16 205.75 327.54C208.68 326.87 211.58 326.36 214.14 324.7C214.62 324.39 214.45 323.59 213.84 323.59C210.01 323.64 206.46 325.04 202.68 325.51C202.73 325.9 202.79 326.29 202.84 326.68C206.71 325.17 210.85 324.52 214.53 322.53C215.03 322.26 214.83 321.38 214.23 321.43C209.87 321.74 205.94 323.54 201.8 324.8C201.95 325.17 202.1 325.53 202.26 325.89C205.86 324.36 209.4 322.67 213.04 321.25C213.74 320.97 213.45 319.84 212.73 320.1C208.67 321.62 204.51 322.86 200.42 324.3C200.58 324.66 200.73 325.02 200.88 325.38C205.29 322.73 210.48 321.82 214.77 318.93C215.35 318.54 214.97 317.75 214.31 317.85C210.22 318.48 206.39 320.05 202.36 320.93C202.46 321.31 202.57 321.69 202.67 322.07C207.55 320.08 212.81 319.23 217.42 316.59C218.02 316.24 217.6 315.38 216.96 315.51C211.35 316.62 205.83 318.19 200.23 319.37C200.39 319.73 200.54 320.09 200.69 320.45C206.02 318.2 212.08 317.67 216.81 314.1C217.27 313.75 217.13 313.03 216.51 312.99C211.19 312.73 206.35 315.16 201.1 315.51C201.24 315.85 201.38 316.19 201.52 316.52C204.95 313.82 210.63 312.66 214.89 313.41C214.89 313.03 214.89 312.65 214.89 312.27C210.66 313.45 205.96 313.5 202.31 316.21C201.82 316.58 202.02 317.23 202.61 317.31C208.51 318.09 214.49 315.81 219.97 313.9C220.57 313.69 220.51 312.68 219.81 312.74C215.6 313.07 211.56 314.2 207.48 315.25C207.58 315.63 207.68 316.01 207.79 316.39C212.28 315.18 216.8 314.08 221.27 312.76C221.88 312.58 221.79 311.52 221.11 311.6C216.41 312.15 211.84 313.72 207.07 313.47C207.12 313.85 207.18 314.24 207.23 314.63C210.98 313.38 214.92 312.97 218.71 311.86C219.35 311.67 219.23 310.68 218.55 310.69C213.72 310.77 209.03 311.91 204.23 312.35C204.29 312.74 204.34 313.13 204.39 313.51C209.3 311.9 214.28 310.66 219.49 310.77C219.44 310.38 219.39 309.99 219.33 309.6C214.78 310.54 210.1 311.04 205.44 310.92C204.68 310.9 204.68 312.08 205.44 312.1Z" />
				</g>
				<g id="&lt;Group&gt;">
					<path id="&lt;Path&gt;" class="shp2" d="M215.7 328.51C217.93 328.56 219.8 328.41 221.83 327.51C222.32 327.3 222.15 326.55 221.69 326.43C218.87 325.72 216.13 325.9 213.25 326.2C212.51 326.27 212.48 327.39 213.25 327.38C216.04 327.35 218.8 327.32 221.57 327.61C221.57 327.22 221.57 326.83 221.57 326.43C218.99 326.34 216.48 326 213.97 326.73C213.45 326.89 213.36 327.78 213.97 327.88C216.88 328.34 219.49 327.5 222.17 326.37C222.67 326.16 222.8 325.39 222.17 325.23C220.13 324.72 218.27 325.08 216.43 326.06C215.99 326.29 216.07 327.04 216.57 327.14C218.91 327.64 221.23 327.73 223.39 326.55C223.75 326.36 223.79 325.72 223.39 325.53C221.09 324.49 218.71 324.56 216.23 324.6C216.23 325 216.23 325.39 216.23 325.79C218.23 325.63 224.73 324.94 225.16 322.26C225.76 318.57 219.59 318.95 217.64 320.14C217.23 320.39 217.25 321.12 217.78 321.22C219.82 321.62 221.77 321.48 223.67 320.61C224.01 320.45 224.06 319.92 223.79 319.68C221.8 317.89 213.13 316.77 212.84 320.87C212.59 324.34 221.21 322.37 222.95 321.88C223.46 321.74 223.51 321.08 223.09 320.8C220.38 319.01 216.52 320.07 213.99 321.73C213.66 321.94 213.59 322.37 213.87 322.66C215.66 324.53 218.64 323.95 220.87 323.27C221.2 323.17 221.47 322.72 221.23 322.4C219.68 320.36 216.5 321.08 214.69 322.46C214.42 322.67 214.24 323.12 214.57 323.39C215.88 324.45 221.6 325.41 220.3 322.2C219.35 319.88 215.47 321.23 215.84 323.69C216.15 325.74 222.04 324.73 222.51 323.04C223.37 319.89 217.66 320.28 216.25 321.59C215.91 321.91 216.1 322.45 216.51 322.58C218.78 323.29 224.1 323.74 224.98 320.56C225.85 317.4 221.06 317.51 219.08 317.59C217.59 317.65 214.08 318.03 215.33 320.27C216.82 322.94 221.87 320.6 223.24 318.99C223.46 318.74 223.47 318.41 223.24 318.16C221.36 316.05 217.88 316 215.73 317.72C215.49 317.91 215.51 318.36 215.73 318.56C218.22 320.76 222.71 318.38 224.95 316.8C225.33 316.53 225.33 316.04 224.95 315.77C222.42 314.03 217.94 314.17 216.35 317.1C216.17 317.42 216.32 317.87 216.7 317.97C218.71 318.47 225.79 317.66 225.08 314.27C224.41 311.05 218.33 313.07 216.95 314.72C216.7 315.02 216.74 315.43 217.07 315.65C220.16 317.67 224.34 315.9 226.5 313.28C226.66 313.09 226.76 312.79 226.6 312.56C224.9 310.26 221.19 309.78 219.56 312.38C219.4 312.63 219.48 313.06 219.77 313.19C221.21 313.85 229.09 314.87 228.61 311.77C228.04 308.08 220.97 309.94 219.46 311.95C219.24 312.25 219.47 312.75 219.81 312.82C222.32 313.35 227.56 313.35 228.53 310.31C228.63 310.01 228.42 309.66 228.12 309.58C226.26 309.09 224.89 309.85 223.85 311.43C223.6 311.81 223.93 312.32 224.36 312.32C226.17 312.32 227.2 311.88 226.45 314.14C225.94 315.66 225.04 317.07 224.15 318.39C224.51 318.54 224.88 318.69 225.24 318.85C225.97 316.56 227.07 314.45 228.08 312.28C227.72 312.13 227.36 311.98 227 311.83C226.33 315.36 224.91 318.67 222.74 321.54C223.1 321.64 223.47 321.74 223.84 321.84C223.65 319.08 224.19 315.98 226.01 313.8C225.7 313.76 225.39 313.73 225.08 313.69C226.66 316.37 225.57 322.39 223.18 324.37C223.52 324.5 223.86 324.64 224.19 324.78C223.88 321.34 225.11 318.2 226.89 315.3C229.19 311.53 228.04 316.18 227.61 317.66C226.71 320.77 223.06 328.71 218.74 326.04C218.08 325.64 217.49 326.67 218.14 327.07C221.89 329.38 225.07 325.4 226.81 322.45C228.06 320.34 231.03 314.5 228.6 312.29C228.37 312.08 227.99 312.04 227.76 312.29C224.72 315.64 222.59 320.19 223.01 324.78C223.06 325.32 223.61 325.54 224.02 325.2C226.84 322.87 227.94 316.22 226.1 313.09C225.92 312.78 225.42 312.67 225.17 312.97C223.15 315.39 222.44 318.73 222.65 321.84C222.7 322.46 223.4 322.6 223.76 322.13C225.99 319.19 227.45 315.76 228.14 312.14C228.26 311.52 227.36 311.04 227.06 311.69C226 313.95 224.86 316.14 224.09 318.53C223.88 319.2 224.82 319.52 225.18 318.99C226.71 316.7 227.94 314.28 228.24 311.52C228.28 311.21 227.95 310.91 227.65 310.93C226.55 311 225.47 311.14 224.36 311.14C224.54 311.44 224.71 311.73 224.88 312.03C226.02 311.3 226.08 311.13 225.07 311.51C224.38 311.67 223.68 311.77 222.97 311.81C222.03 311.9 221.05 311.87 220.13 311.68C220.25 311.97 220.36 312.26 220.48 312.55C221.42 311.3 223.64 311.05 225.06 310.96C225.94 310.9 227.63 312.13 226.19 312.49C225.4 312.69 224.51 312.65 223.7 312.65C222.91 312.65 222.12 312.56 221.34 312.44C218.07 311.93 226.51 311.42 225.21 313C223.54 315.02 219.92 316.1 217.67 314.63C217.71 314.94 217.75 315.25 217.79 315.56C218.96 314.16 221.52 313.67 223.24 313.91C223.6 315.02 223.34 315.72 222.46 316.01C221.82 316.3 221.16 316.53 220.47 316.68C219.37 316.98 218.13 317.1 217.02 316.82C217.13 317.11 217.25 317.4 217.37 317.69C218.68 315.29 222.38 315.43 224.35 316.8C224.35 316.46 224.35 316.11 224.35 315.77C222.74 316.91 220.93 317.67 219.01 318.12C216.96 318.36 216.67 318.25 218.15 317.8C219.3 317.57 220.42 317.71 221.5 318.2C223.07 318.87 219.49 319.87 218.84 320.05C218.18 319.74 217.51 319.42 216.84 319.11C217.38 318.96 217.93 318.86 218.49 318.81C219.25 318.73 220.02 318.75 220.78 318.77C221.5 318.79 222.21 318.89 222.9 319.05C223 321.08 222.19 322.02 220.47 321.88C219.25 322.02 217.98 321.8 216.82 321.44C216.91 321.77 217 322.1 217.08 322.43C218.59 321.03 222.54 322.55 220.05 323.29C219.64 323.36 219.23 323.43 218.82 323.5C217.97 323.76 217.72 323.36 218.05 322.31C217.97 322.66 217.89 323.01 217.81 323.36C216.93 323.32 216.13 323.05 215.41 322.55C215.37 322.86 215.33 323.17 215.29 323.48C216.37 322.65 219.07 321.49 220.21 323C220.32 322.71 220.44 322.42 220.56 322.13C218.85 322.65 216.18 323.36 214.7 321.82C214.66 322.13 214.62 322.44 214.58 322.75C216.76 321.33 220.14 320.26 222.49 321.82C222.54 321.46 222.59 321.1 222.64 320.74C220.54 321.32 218.29 321.54 216.12 321.56C215.92 321.56 215.72 321.55 215.51 321.54C214.16 321.63 214.16 321.04 215.53 319.75C216.33 319.42 217.24 319.38 218.1 319.34C219.65 319.25 221.75 319.43 222.95 320.52C222.99 320.21 223.03 319.9 223.07 319.59C221.47 320.32 219.81 320.42 218.09 320.08C218.14 320.44 218.19 320.8 218.23 321.16C219.47 320.41 220.95 320.37 222.34 320.57C223.77 321.71 223.95 322.48 222.87 322.88C222.32 323.16 221.74 323.39 221.15 323.57C219.59 324.11 217.88 324.47 216.23 324.6C215.48 324.67 215.46 325.8 216.23 325.79C218.46 325.74 220.71 325.61 222.79 326.55C222.79 326.21 222.79 325.87 222.79 325.53C220.91 326.56 218.9 326.43 216.88 326C216.93 326.36 216.98 326.72 217.02 327.08C218.6 326.24 220.1 325.93 221.86 326.37C221.86 325.99 221.86 325.61 221.86 325.23C219.43 326.25 216.96 327.16 214.29 326.73C214.29 327.12 214.29 327.5 214.29 327.88C216.68 327.17 219.12 327.52 221.57 327.61C222.35 327.64 222.31 326.51 221.57 326.43C218.8 326.13 216.04 326.17 213.25 326.2C213.25 326.59 213.25 326.99 213.25 327.38C216.01 327.1 218.65 326.88 221.38 327.57C221.33 327.21 221.28 326.85 221.24 326.49C219.26 327.36 217.7 327.37 215.7 327.33C214.94 327.32 214.94 328.5 215.7 328.51Z" />
				</g>
			</g>
			<g id="&lt;Group&gt;">
				<path id="&lt;Path&gt;" class="shp2" d="M174.18 22.46C174.14 28.88 172.76 36.4 174.91 42.6C175.41 44.03 177.69 43.42 177.19 41.97C175.13 36.01 176.51 28.65 176.55 22.46C176.56 20.93 174.19 20.93 174.18 22.46Z" />
			</g>
			<g id="&lt;Group&gt;">
				<path id="&lt;Path&gt;" class="shp2" d="M252.79 84.15C257.88 79.68 262.55 74.73 267.84 70.48C269.03 69.52 267.34 67.86 266.16 68.8C260.87 73.06 256.21 78 251.12 82.48C249.97 83.49 251.65 85.16 252.79 84.15Z" />
			</g>
			<g id="&lt;Group&gt;">
				<path id="&lt;Path&gt;" class="shp2" d="M285.46 169.3C293.05 169.3 300.44 169.64 307.72 171.99C309.17 172.46 309.79 170.17 308.35 169.71C300.87 167.29 293.27 166.94 285.46 166.93C283.94 166.93 283.94 169.3 285.46 169.3Z" />
			</g>
			<g id="&lt;Group&gt;">
				<path id="&lt;Path&gt;" class="shp2" d="M86.81 62.89C86.62 62.5 86.59 62.52 86.72 62.95C86.33 63.34 85.93 63.74 85.54 64.13C84.66 64.06 85.54 64.48 85.93 64.88C86.47 65.43 86.98 66 87.5 66.57C88.69 67.87 89.85 69.2 91.02 70.51C94.39 74.28 97.54 78.82 102.28 80.92C103.66 81.53 104.87 79.49 103.48 78.88C98.56 76.7 95.21 71.66 91.71 67.72C90.35 66.19 87.79 61.97 85.54 61.77C84.92 61.71 84.32 62.35 84.35 62.95C84.38 63.38 84.55 63.72 84.76 64.08C85.53 65.4 87.57 64.21 86.81 62.89Z" />
			</g>
			<g id="&lt;Group&gt;">
				<path id="&lt;Path&gt;" class="shp2" d="M59.03 155.46C66.78 149.98 75.6 145.86 84.73 143.27C86.2 142.85 85.57 140.57 84.1 140.99C74.79 143.62 65.74 147.83 57.83 153.41C56.6 154.29 57.78 156.34 59.03 155.46Z" />
			</g>
			<g id="&lt;Group&gt;">
				<path id="&lt;Path&gt;" class="shp2" d="M74.16 122.11C77.14 122.07 80.08 122.52 83.05 122.8C84.57 122.94 84.55 120.57 83.05 120.43C80.08 120.15 77.14 119.71 74.16 119.74C72.63 119.76 72.63 122.13 74.16 122.11Z" />
			</g>
			<g id="&lt;Group&gt;">
				<path id="&lt;Path&gt;" class="shp2" d="M79.31 104.97C83.14 105.52 85.99 108.49 89.57 109.76C91.01 110.27 91.63 107.99 90.2 107.48C86.6 106.2 83.84 103.24 79.94 102.69C78.45 102.48 77.81 104.76 79.31 104.97Z" />
			</g>
			<g id="&lt;Group&gt;">
				<path id="&lt;Path&gt;" class="shp2" d="M118.83 58.33C119.79 61.55 121.99 64.03 123.74 66.82C124.55 68.11 126.6 66.92 125.78 65.62C124.16 63.03 122 60.69 121.12 57.7C120.68 56.24 118.4 56.86 118.83 58.33Z" />
			</g>
			<g id="&lt;Group&gt;">
				<path id="&lt;Path&gt;" class="shp2" d="M138.67 50.18C137.99 53.62 138.66 56.85 140.15 59.98C140.81 61.36 142.85 60.16 142.2 58.79C141 56.26 140.41 53.58 140.95 50.81C141.24 49.32 138.96 48.68 138.67 50.18Z" />
			</g>
			<g id="&lt;Group&gt;">
				<path id="&lt;Path&gt;" class="shp2" d="M209.06 41.6C209.16 44.51 209.22 47.36 208.42 50.18C208 51.65 210.28 52.27 210.7 50.81C211.56 47.79 211.54 44.71 211.43 41.6C211.37 40.08 209 40.08 209.06 41.6Z" />
			</g>
			<g id="&lt;Group&gt;">
				<path id="&lt;Path&gt;" class="shp2" d="M227 47.84C225.66 49.63 225 51.71 224.79 53.91C224.64 55.43 227.01 55.42 227.15 53.91C227.33 52.11 227.96 50.48 229.04 49.04C229.96 47.82 227.91 46.64 227 47.84Z" />
			</g>
			<g id="&lt;Group&gt;">
				<path id="&lt;Path&gt;" class="shp2" d="M280.68 115.27C285.72 114.81 290.57 113.45 295.35 111.81C296.79 111.32 296.17 109.03 294.72 109.53C290.15 111.09 285.5 112.46 280.68 112.91C279.17 113.05 279.16 115.41 280.68 115.27Z" />
			</g>
			<g id="&lt;Group&gt;">
				<path id="&lt;Path&gt;" class="shp2" d="M286.06 130.84C290.82 128.6 295.82 126.47 301.19 126.9C302.71 127.02 302.7 124.65 301.19 124.53C295.41 124.07 289.99 126.38 284.87 128.8C283.49 129.45 284.69 131.49 286.06 130.84Z" />
			</g>
		</g>
	</g>
</svg>