<svg version="1.2" baseProfile="tiny-ps" xmlns="http://www.w3.org/2000/svg" viewBox="0 0 382 382" width="382" height="382">
	<title>object</title>
	<style>
		tspan { white-space:pre }
		.shp0 { fill: #edf0f4 } 
		.shp1 { fill: #f48c82 } 
		.shp2 { fill: #272425 } 
	</style>
	<g id="colour">
		<path id="&lt;Path&gt;" class="shp0" d="M381 191.44C381 296.66 295.7 381.96 190.48 381.96C85.26 381.96 -0.04 296.66 -0.04 191.44C-0.04 86.21 85.26 0.91 190.48 0.91C295.7 0.91 381 86.21 381 191.44Z" />
		<path id="&lt;Path&gt;" class="shp1" d="M222.85 122.56C222.85 140.26 208.5 154.61 190.8 154.61C173.1 154.61 158.75 140.26 158.75 122.56C158.75 104.86 173.1 90.51 190.8 90.51C208.5 90.51 222.85 104.86 222.85 122.56Z" />
		<g id="&lt;Group&gt;">
			<path id="&lt;Path&gt;" class="shp1" d="M90.56 316.09C88.96 318.5 88.47 321.99 87.71 324.77C86.88 327.77 86.34 330.9 85.91 333.98C85.73 335.28 87.47 336.3 88.2 334.94C89.6 332.32 90.91 329.6 92.02 326.84C93.19 323.92 94.92 320.46 95.06 317.31C95.17 314.77 91.81 314.19 90.56 316.09Z" />
			<path id="&lt;Path&gt;" class="shp1" d="M101.33 326.41C101.38 323.38 101.55 319.56 100.46 316.71C99.77 314.89 96.75 314.41 96.28 316.71C95.65 319.82 96.42 323.29 96.81 326.41C97.03 328.07 97.26 329.72 97.44 331.39C97.57 332.68 97.75 333.42 98.89 334.09C99.4 334.39 99.91 334.24 100.35 333.9C102.23 332.43 101.29 328.55 101.33 326.41Z" />
			<path id="&lt;Path&gt;" class="shp1" d="M113.44 333.43C112.59 330.51 111.41 327.67 110.34 324.82C109.22 321.84 108.11 318.66 106.53 315.89C105.44 313.96 102.25 315.26 102.94 317.4C103.83 320.19 105.25 322.9 106.55 325.52C108.01 328.5 109.44 331.56 111.15 334.4C111.88 335.6 113.84 334.82 113.44 333.43Z" />
		</g>
		<g id="&lt;Group&gt;">
			<path id="&lt;Path&gt;" class="shp1" d="M281.59 321.45C280.74 323.36 280.26 325.39 279.37 327.3C278.41 329.37 277.6 331.43 277.09 333.66C276.78 335.03 278.64 335.88 279.38 334.63C281.52 331.02 285.28 326.86 285.15 322.41C285.09 320.66 282.41 319.61 281.59 321.45Z" />
			<path id="&lt;Path&gt;" class="shp1" d="M291.41 327.94C290.89 326.31 288.29 326.54 288.35 328.35C288.44 330.91 288.98 333.45 289.04 336.03C289.07 337.41 291.29 337.83 291.53 336.37C291.97 333.69 292.26 330.57 291.41 327.94Z" />
			<path id="&lt;Path&gt;" class="shp1" d="M304.44 335.44C303.82 334.05 303.11 332.7 302.36 331.37C301.65 330.1 300.67 328.8 300.48 327.31C300.14 324.68 296.44 324.54 296.28 327.31C296.1 330.45 298.28 332.95 299.76 335.54C301.36 338.36 302.52 341.53 304.39 344.19C305.08 345.18 306.88 344.92 306.82 343.52C306.71 340.69 305.57 338 304.44 335.44Z" />
		</g>
		<path id="&lt;Path&gt;" class="shp1" d="M286.18 232.99C287.5 271.55 289.35 292.19 291.71 294.91C295.25 298.98 300.57 299.75 302.78 295.16C304.26 292.1 306.99 271.3 310.97 232.73L286.18 232.99Z" />
		<path id="&lt;Path&gt;" class="shp1" d="M86.17 225.63C87.46 263.77 89.25 284.18 91.55 286.87C94.98 290.9 100.14 291.66 102.29 287.12C103.73 284.1 106.38 263.52 110.25 225.38L86.17 225.63Z" />
	</g>
	<g id="object">
		<g id="&lt;Group&gt;">
			<path id="&lt;Compound Path&gt;" fill-rule="evenodd" class="shp2" d="M254.25 212.32C254.25 211.88 254.24 211.45 254.24 211.01C254.1 211.21 253.88 211.36 253.64 211.46C254.21 212.28 253.85 213.73 252.54 213.73C221.15 213.73 189.76 214.22 158.38 214.42C157.91 215.15 156.66 215.15 156.06 214.43C155.21 214.44 154.36 214.44 153.52 214.45C153.13 215.7 151.09 216.05 150.85 214.51C150.84 214.5 150.84 214.48 150.84 214.46C149.81 214.47 148.79 214.47 147.76 214.48C147.25 214.81 146.55 214.86 146.09 214.48C145.19 214.48 144.3 214.48 143.41 214.49C142.93 214.79 142.26 214.79 141.78 214.49C139.47 214.5 137.16 214.51 134.85 214.51C133.79 214.51 133.36 213.56 133.53 212.76C133.07 212.56 132.71 212.16 132.66 211.54C131.65 197.52 133.25 183.43 134.8 169.51C136.4 155.19 137.84 140.86 140.33 126.66C142.48 114.38 145.11 102.04 148.71 90.1C149.87 86.28 151.26 81.88 153.38 78.02C153.45 77.68 153.62 77.36 153.88 77.14C155.97 73.6 158.72 70.62 162.54 69.11C163.25 68.83 163.78 69.15 164.05 69.66C167.04 68.97 170.22 68.94 173.24 69.03C178.38 69.18 183.49 69.75 188.61 70.21C191.97 70.5 195.34 70.58 198.71 70.66C203.28 69.97 208.26 69.96 212.73 71.13C213.43 71.07 214.14 71 214.84 70.94C216.09 70.75 217.35 70.64 218.63 70.58C219.31 70.55 219.74 70.91 219.9 71.39C220.13 71.39 220.36 71.39 220.59 71.39C221.46 71.4 221.91 72.05 221.94 72.72C222.14 72.71 222.34 72.7 222.53 72.69C222.54 72.69 222.55 72.69 222.56 72.69C222.61 72.63 222.67 72.58 222.74 72.53C222.94 72.16 223.33 71.92 223.91 71.99C225.64 72.23 227.13 72.84 228.6 73.76C229.37 74.24 229.54 75.31 228.89 75.97C228.29 76.57 227.63 77.11 226.95 77.48C228.78 81.27 230.89 84.93 232.75 88.71C235.2 93.68 236.97 98.79 238.51 104.11C242 116.22 244.64 128.54 247.59 140.78C250.42 152.5 253.65 163.98 255.12 175.98C256.09 183.91 256.62 191.88 256.87 199.86C257.93 200.3 258.19 202.03 256.94 202.45C257.03 205.74 257.07 209.03 257.07 212.32C257.07 214.14 254.25 214.14 254.25 212.32ZM206.17 74.3C203.96 74.36 201.75 74.33 199.54 74.16C199.58 74.35 199.58 74.54 199.55 74.73C201.66 74.59 203.83 74.38 205.98 74.32C206.05 74.31 206.11 74.31 206.17 74.3ZM174.51 77.48C175 77.49 175.5 77.5 175.99 77.5C175.51 77.47 175.03 77.44 174.54 77.41C174.53 77.43 174.52 77.46 174.51 77.48ZM221.93 75.54C221.51 75.56 221.1 75.59 220.68 75.61C221.09 75.85 221.31 76.3 221.31 76.76C221.39 76.76 221.48 76.75 221.56 76.74C221.62 76.31 221.73 75.93 221.93 75.54ZM135.17 202.5C138.75 201.48 142.61 202.52 146.21 202.93C146.27 202.94 146.33 202.94 146.39 202.95C146.74 202.87 147.12 202.9 147.45 203.06C152.09 203.53 156.76 203.63 161.43 203.64C172.13 203.64 182.78 203.08 193.46 202.58C204.11 202.07 214.78 202.07 225.44 201.58C230.57 201.34 235.7 201.04 240.82 200.6C245.21 200.23 249.7 200.68 254.07 200.11C253.83 192.04 253.32 183.98 252.3 175.98C250.75 163.88 247.44 152.31 244.62 140.48C241.7 128.23 239.08 115.9 235.49 103.83C233.8 98.16 231.76 92.82 229.01 87.58C227.58 84.85 226.11 82.13 224.75 79.37C219.41 80.28 214.04 81.28 208.6 81.38C202.65 81.48 196.68 81.41 190.72 81.45C179.03 81.52 167.32 81.41 155.72 79.79C155.46 80.29 155.21 80.8 154.98 81.29C152.95 85.6 151.54 90.18 150.33 94.77C147.21 106.6 144.48 118.52 142.51 130.6C140.24 144.48 138.82 158.46 137.3 172.44C136.21 182.4 135.17 192.46 135.17 202.5ZM250.58 203.13C249.86 203.14 249.13 203.15 248.41 203.15C248.31 205.42 248.62 207.66 249.18 209.87C249.28 210.28 249.21 210.64 249.03 210.92C249.95 210.92 250.88 210.91 251.8 210.91C251.74 210.82 251.69 210.72 251.65 210.62C250.81 208.24 250.64 205.64 250.58 203.13ZM241.74 210.94C241.77 209.8 241.86 208.66 241.86 207.52C241.87 206.61 241.95 205.5 241.4 204.72C241.06 204.23 241.1 203.75 241.33 203.38C241.28 203.38 241.22 203.39 241.16 203.39C241.15 203.46 241.14 203.53 241.12 203.6C240.43 205.96 241.13 208.55 241.42 210.94C241.53 210.94 241.63 210.94 241.74 210.94ZM234.88 210.96C234.83 210.86 234.79 210.75 234.77 210.62C234.36 208.37 233.99 206.18 234.17 203.92C233.6 203.96 233.04 203.99 232.48 204.02C232.78 204.93 232.8 205.98 232.86 206.88C232.95 208.24 232.97 209.61 233.09 210.97C233.69 210.97 234.28 210.97 234.88 210.96ZM218.08 211.08C217.95 209.27 218.23 207.18 217.5 205.5C217.38 205.21 217.35 204.93 217.39 204.67C217.01 204.68 216.62 204.69 216.24 204.7C216.28 206.84 216.64 209.12 217.49 211.08C217.68 211.08 217.88 211.08 218.08 211.08ZM214.51 211.11C213.82 209.08 213.47 206.9 213.42 204.77C212.73 204.79 212.04 204.8 211.35 204.82C211.67 206.91 211.66 209.06 212.09 211.13C212.9 211.12 213.7 211.11 214.51 211.11ZM201.39 211.22C201.02 210.37 200.96 209.32 200.88 208.45C200.79 207.33 200.74 206.22 200.7 205.1C200.24 205.12 199.78 205.13 199.32 205.15C199.59 207.17 199.56 209.23 199.93 211.24C200.41 211.23 200.9 211.23 201.39 211.22ZM197.09 211.27C196.84 209.41 196.85 207.54 196.57 205.68C196.55 205.53 196.56 205.39 196.57 205.26C195.96 205.28 195.34 205.31 194.72 205.34C195.21 207.29 195.21 209.33 195.66 211.28C196.14 211.28 196.62 211.27 197.09 211.27ZM192.8 211.31C192.46 209.44 192.44 207.51 191.9 205.68C191.88 205.61 191.87 205.54 191.86 205.47C191.32 205.5 190.79 205.52 190.25 205.55C190.26 207.5 190.55 209.43 191.01 211.32C191.61 211.32 192.2 211.31 192.8 211.31ZM183.77 211.39C183.64 209.53 183.35 207.71 183.64 205.87C183.23 205.89 182.81 205.91 182.39 205.93C182.19 207.72 181.92 209.69 182.4 211.41C182.86 211.4 183.31 211.4 183.77 211.39ZM174.98 211.47C175.03 209.73 175.09 207.91 174.58 206.24C174.12 206.25 173.67 206.26 173.21 206.28C173.41 208.03 173.75 209.76 174.13 211.48C174.41 211.48 174.7 211.48 174.98 211.47ZM171.26 211.51C170.89 209.8 170.57 208.09 170.38 206.36C170.07 206.37 169.76 206.37 169.45 206.38C169.42 208.11 169.5 209.82 169.9 211.52C170.35 211.51 170.8 211.51 171.26 211.51ZM163.21 211.57C162.9 209.87 162.62 208.16 162.9 206.45C162.78 206.45 162.65 206.45 162.53 206.45C162.33 206.45 162.13 206.45 161.93 206.45C161.92 208.18 162.27 209.87 162.54 211.58C162.76 211.57 162.98 211.57 163.21 211.57ZM155.49 211.62C155.24 209.87 154.9 208.14 154.76 206.38C154.12 206.36 153.48 206.33 152.84 206.31C152.84 208.09 153 209.86 153.24 211.63C153.99 211.63 154.74 211.62 155.49 211.62ZM158.31 211.6C158.78 211.6 159.25 211.6 159.72 211.59C159.45 209.88 159.1 208.19 159.11 206.45C158.6 206.44 158.09 206.44 157.58 206.43C157.73 208.17 158.06 209.88 158.31 211.6ZM166.05 211.55C166.37 211.55 166.69 211.54 167.02 211.54C166.69 209.86 166.61 208.15 166.63 206.43C166.35 206.43 166.06 206.43 165.78 206.43C165.78 206.44 165.78 206.45 165.78 206.46C165.33 208.1 165.74 209.79 166.04 211.42C166.04 211.47 166.04 211.51 166.05 211.55ZM177.8 211.45C178.37 211.45 178.94 211.44 179.52 211.44C179.19 209.69 179.38 207.82 179.56 206.05C178.87 206.08 178.17 206.1 177.48 206.13C177.89 207.85 177.85 209.69 177.8 211.45ZM186.58 211.37C187.1 211.36 187.61 211.36 188.13 211.35C187.71 209.49 187.45 207.59 187.43 205.69C187.14 205.7 186.84 205.72 186.55 205.73C186.05 207.58 186.44 209.49 186.58 211.37ZM204.31 211.2C204.68 211.19 205.05 211.19 205.42 211.19C205.42 211.17 205.41 211.15 205.41 211.14C205.08 209.09 204.95 207.04 204.87 204.98C204.42 204.99 203.97 205 203.52 205.01C203.55 205.94 203.58 206.87 203.65 207.79C203.71 208.54 203.69 209.72 204.09 210.31C204.3 210.62 204.35 210.92 204.31 211.2ZM208.05 211.16C208.44 211.16 208.84 211.15 209.24 211.15C208.91 209.08 208.92 206.97 208.53 204.9C208.52 204.89 208.53 204.89 208.52 204.89C208.24 204.89 207.96 204.9 207.69 204.91C207.74 206.74 207.83 208.57 208.13 210.39C208.17 210.67 208.13 210.93 208.05 211.16ZM220.89 211.05C221.07 211.05 221.25 211.05 221.43 211.05C221.38 208.89 221.36 206.71 220.74 204.64C220.73 204.61 220.73 204.59 220.72 204.57C220.52 204.57 220.32 204.58 220.12 204.59C220.86 206.67 220.72 208.86 220.89 211.05ZM224.24 211.03C225.14 211.02 226.03 211.02 226.92 211.01C226.04 208.89 225.36 206.69 225.14 204.4C224.63 204.43 224.12 204.45 223.6 204.47C224.15 206.6 224.19 208.83 224.24 211.03ZM229.63 210.99C229.85 210.99 230.06 210.99 230.28 210.99C230.17 209.87 230.15 208.74 230.09 207.62C230.04 206.8 230.16 205.44 229.71 204.72C229.6 204.54 229.54 204.37 229.51 204.2C228.99 204.22 228.47 204.25 227.95 204.28C228.13 206.25 228.77 208.24 229.55 210.05C229.69 210.38 229.7 210.7 229.63 210.99ZM237.26 210.95C237.71 210.95 238.16 210.94 238.6 210.94C238.31 208.53 237.75 206.04 238.22 203.63C237.8 203.66 237.39 203.69 236.97 203.72C236.97 203.77 236.97 203.81 236.97 203.86C236.69 205.87 237.13 207.9 237.49 209.87C237.56 210.29 237.46 210.66 237.26 210.95ZM244.56 210.93C245.23 210.93 245.9 210.93 246.57 210.92C246.53 210.83 246.49 210.73 246.46 210.62C245.85 208.19 245.48 205.67 245.59 203.17C244.98 203.18 244.38 203.19 243.77 203.21C243.79 203.24 243.82 203.26 243.84 203.29C245.28 205.34 244.65 208.52 244.56 210.93ZM135.48 211.54C135.49 211.59 135.48 211.64 135.48 211.69C135.91 211.69 136.34 211.68 136.77 211.68C136.77 209.46 136.77 207.24 136.77 205.02C136.31 205.11 135.87 205.22 135.43 205.36C135.35 205.39 135.28 205.4 135.21 205.42C135.25 207.46 135.33 209.5 135.48 211.54ZM139.58 211.68C140.12 211.68 140.65 211.67 141.18 211.67C141.18 209.44 141.18 207.2 141.18 204.97C140.65 204.91 140.11 204.87 139.58 204.85C139.58 207.13 139.58 209.4 139.58 211.68ZM144 211.67C144.45 211.67 144.89 211.67 145.34 211.66C145.15 209.65 145.25 207.62 145.31 205.59C144.88 205.52 144.44 205.45 144 205.37C144 207.47 144 209.57 144 211.67ZM150.42 211.65C150.17 209.82 150.01 207.98 150.02 206.13C149.38 206.08 148.75 206.02 148.11 205.96C148.04 207.86 147.93 209.77 148.15 211.66C148.91 211.65 149.66 211.65 150.42 211.65ZM254.23 209.43C254.22 207.26 254.19 205.08 254.15 202.91C253.9 202.94 253.65 202.96 253.4 202.98C253.45 205.15 253.58 207.35 254.23 209.43Z" />
			<path id="&lt;Compound Path&gt;" fill-rule="evenodd" class="shp2" d="M251.05 255.9C250.68 256.05 250.32 256.18 249.95 256.31C249.91 256.78 249.68 257.23 249.19 257.56C245.79 259.79 243.86 264.37 242.24 267.93C240.49 271.8 239.02 275.78 237.24 279.63C235.44 283.56 233.48 287.44 231.48 291.27C229.74 294.59 228 298.22 225.37 300.94C225.31 300.99 225.26 301.03 225.2 301.08C227.26 301.42 227.14 304.78 224.86 304.78C224.38 304.78 223.9 304.78 223.42 304.78C223.41 304.84 223.41 304.89 223.4 304.95C223.3 305.84 221.89 305.85 221.99 304.95C222 304.89 222 304.84 222.01 304.78C211.34 304.78 200.68 304.78 190.01 304.78C189.82 304.87 189.58 304.87 189.38 304.78C184.27 304.78 179.15 304.78 174.04 304.78C173.52 304.78 172.99 304.78 172.47 304.78C170.47 304.78 170.13 302.23 171.44 301.34C171.21 301.27 170.98 301.14 170.76 300.94C157.07 287.97 151.46 268.9 138.03 255.73C137.92 255.63 137.84 255.53 137.77 255.42C136.95 255.34 136.14 255.26 135.32 255.17C133.53 254.97 133.51 252.15 135.32 252.35C157.42 254.81 179.68 254.17 201.87 253.96C210.45 253.89 218.87 254.28 227.44 254.81C234.87 255.27 243.24 256.05 250.3 253.18C251.98 252.5 252.71 255.23 251.05 255.9ZM226.99 257.61C226.45 265.51 226.76 273.45 226.17 281.35C225.78 286.55 225.08 291.71 224.4 296.87C226.38 294.26 227.85 291.1 229.27 288.21C229.4 278.08 231.53 267.87 229.88 257.78C229.34 257.75 228.8 257.71 228.27 257.68C227.84 257.66 227.42 257.63 226.99 257.61ZM181.23 257C180.72 260.94 181.28 264.89 181.53 268.84C181.77 272.67 181.79 276.52 181.9 280.37C182.02 284.31 182.15 288.27 182.54 292.21C182.76 294.34 183.06 296.46 183.23 298.59C183.26 298.59 183.29 298.58 183.32 298.58C183.81 298.57 184.31 298.56 184.8 298.56C184.77 297.05 184.75 295.54 184.76 294.03C184.81 289.43 184.86 284.83 184.79 280.22C184.71 275.5 184.58 270.77 184.41 266.05C184.31 263.07 183.67 259.9 184.44 256.98C183.37 256.98 182.3 256.99 181.23 257ZM185.92 256.96C184.93 260.13 185.75 263.88 185.86 267.14C186 271.14 186.12 275.13 186.18 279.13C186.25 283.41 186.25 287.68 186.2 291.95C186.17 294.03 186.14 296.1 186.19 298.18C186.19 298.29 186.19 298.42 186.19 298.55C187.13 298.55 188.08 298.56 189.03 298.58C189.09 291.64 189.24 284.7 189.25 277.76C189.26 273.53 189.43 269.31 189.49 265.08C189.52 262.43 189.11 259.58 189.53 256.92C188.33 256.94 187.12 256.95 185.92 256.96ZM190.97 256.91C190.7 258.57 190.93 260.21 190.92 261.91C190.92 264.02 190.88 266.14 190.83 268.25C190.74 272.16 190.68 276.06 190.66 279.97C190.63 286.18 190.5 292.39 190.44 298.6C191.68 298.62 192.93 298.64 194.17 298.65C193.1 284.75 193.86 270.79 193.92 256.87C192.94 256.88 191.96 256.9 190.97 256.91ZM195.33 256.86C195.27 270.78 194.51 284.75 195.58 298.64C195.92 298.64 196.26 298.64 196.6 298.63C197.24 298.62 197.87 298.62 198.51 298.61C199.08 295.3 198.73 291.87 198.45 288.55C198.09 284.42 198.11 280.34 198.1 276.2C198.1 271.9 197.83 267.64 197.72 263.35C197.7 262.21 198.15 257.36 197.51 256.86C197.5 256.85 197.49 256.84 197.48 256.83C196.77 256.84 196.05 256.85 195.33 256.86ZM201.07 256.79C200.39 256.8 199.71 256.81 199.03 256.81C199.43 258.3 199.09 260.8 199.1 261.77C199.17 266.21 199.51 270.64 199.51 275.1C199.52 279.91 199.54 284.64 199.93 289.44C200.18 292.48 200.4 295.58 199.93 298.59C200.18 298.59 200.43 298.58 200.69 298.58C200.69 284.85 200.69 271.13 200.69 257.4C200.69 257.09 200.85 256.89 201.07 256.79ZM210.23 280.42C209.97 286.43 209.62 292.43 209.6 298.45C210.15 298.43 210.71 298.41 211.26 298.39C211.39 291.94 212.51 285.48 212.8 279.05C213 274.69 213.09 270.31 212.69 265.96C212.43 263.24 211.35 260.45 212.14 257.73C212.4 256.86 213.76 257.24 213.5 258.11C212.63 261.09 214.1 265.02 214.25 268.13C214.44 272.13 214.38 276.14 214.15 280.14C213.81 286.18 212.8 292.28 212.67 298.35C212.71 298.35 212.76 298.35 212.8 298.34C213.37 298.32 213.94 298.3 214.51 298.27C214.63 291.88 214.92 285.49 215.38 279.12C215.67 275.02 216.02 270.94 216.37 266.85C216.61 263.98 217.45 260.65 216.56 257.85C216.44 257.48 216.62 257.21 216.88 257.07C214.81 256.98 212.74 256.91 210.66 256.86C210.44 264.71 210.57 272.57 210.23 280.42ZM221.66 257.3C220.74 260.35 221.64 263.6 221.52 266.72C221.37 270.66 221.24 274.6 221.06 278.54C220.77 285.15 220.46 291.75 220.34 298.36C221.18 298.42 222.06 298.44 222.82 298.28C223.58 292.65 224.4 287.02 224.76 281.35C225.27 273.42 225.03 265.45 225.59 257.52C224.28 257.44 222.96 257.37 221.66 257.3ZM220.21 257.23C219.36 257.18 218.5 257.14 217.65 257.11C217.77 257.19 217.87 257.31 217.92 257.48C218.77 260.16 218.1 263 217.87 265.73C217.53 269.82 217.16 273.91 216.87 278C216.38 284.73 216.05 291.48 215.93 298.23C216.84 298.21 217.74 298.2 218.66 298.24C218.75 298.24 218.84 298.25 218.93 298.25C219.07 291.32 219.41 284.4 219.7 277.47C219.87 273.46 220.32 269.32 220.1 265.31C219.96 262.65 219.51 259.84 220.21 257.23ZM179.82 257.01C179.01 257.01 178.21 257.01 177.4 257.02C177.41 257.06 177.41 257.1 177.41 257.14C177.4 260.39 178.09 263.66 178.27 266.91C178.47 270.46 178.53 274 178.61 277.55C178.7 281.16 178.84 284.77 179.09 288.38C179.22 290.22 179.36 292.05 179.51 293.89C179.61 295.2 179.45 297.27 179.78 298.81C180.49 298.77 181.17 298.71 181.83 298.66C181.62 296.15 181.24 293.65 181.04 291.13C180.7 286.83 180.54 282.52 180.43 278.21C180.33 274.12 180.22 270.04 179.89 265.95C179.65 262.96 179.47 259.99 179.82 257.01ZM176 257.14C176 257.1 176.01 257.06 176.02 257.02C175.36 257.02 174.7 257.02 174.04 257.01C174.09 265.15 174.3 273.29 174.89 281.4C175.16 285.05 175.46 288.68 175.57 292.35C175.64 294.48 175.68 296.66 175.97 298.78C176.77 298.87 177.6 298.89 178.43 298.87C178.39 298.36 178.4 297.83 178.35 297.19C178.21 295.36 178.07 293.52 177.93 291.68C177.63 287.69 177.36 283.69 177.26 279.68C177.16 275.78 177.14 271.87 176.92 267.98C176.72 264.37 175.99 260.75 176 257.14ZM172.63 257.01C171.98 257.01 171.32 257 170.66 257C170.69 265.48 171.06 273.96 171.52 282.43C171.68 285.37 171.74 288.25 171.75 291.19C171.75 293.04 171.58 295.57 172.28 297.53C172.41 297.57 172.53 297.62 172.66 297.71C173.22 298.08 173.85 298.33 174.52 298.51C174.31 296.76 174.24 294.98 174.19 293.22C174.08 289.62 173.83 286.06 173.56 282.47C172.94 274 172.68 265.51 172.63 257.01ZM173 300.98C172.98 301 172.96 301.02 172.94 301.04C173.02 301.04 173.1 301.04 173.19 301.04C173.12 301.02 173.06 301 173 300.98ZM201.87 256.78C201.81 256.78 201.75 256.78 201.7 256.79C201.92 256.88 202.09 257.08 202.09 257.4C202.09 271.12 202.09 284.84 202.09 298.57C202.66 298.56 203.23 298.55 203.8 298.55C203.8 292.35 203.85 286.17 204.17 279.97C204.36 276.28 204.57 272.59 204.59 268.9C204.61 265.23 204.1 261.59 204.06 257.92C204.05 257.01 205.46 257.01 205.47 257.92C205.52 261.97 206.07 265.96 205.98 270.01C205.9 273.7 205.71 277.39 205.52 281.07C205.22 286.9 205.2 292.71 205.21 298.53C206.2 298.52 207.2 298.5 208.19 298.48C208.23 292.09 208.65 285.73 208.86 279.33C209.11 271.83 209.04 264.33 209.26 256.83C206.8 256.78 204.34 256.76 201.87 256.78ZM166.65 256.95C165.91 256.94 165.16 256.93 164.42 256.92C164.4 262.75 164.32 268.58 164.54 274.41C164.64 277 164.82 279.57 164.79 282.16C164.75 284.69 164.68 287.22 165.43 289.66C165.95 290.37 166.49 291.08 167.03 291.78C166.98 290.7 167.02 289.6 167.08 288.49C167.26 285.19 167.06 281.89 166.97 278.59C166.78 271.38 166.66 264.17 166.65 256.95ZM163.47 286.88C163.35 285.62 163.35 284.35 163.36 283.07C163.41 280.17 163.22 277.3 163.13 274.41C162.94 268.57 163 262.73 163.01 256.89C162.33 256.87 161.64 256.86 160.96 256.84C159.89 261.83 160.26 266.98 160.64 272.03C160.79 274.14 161.04 276.28 160.99 278.4C160.95 279.6 160.62 281.77 161.06 283.21C161.85 284.45 162.65 285.67 163.47 286.88ZM150.44 265.88C150.4 262.72 150.61 259.52 151.34 256.46C150.3 256.4 149.25 256.34 148.21 256.28C148.42 256.38 148.57 256.58 148.57 256.88C148.56 258.96 148.45 261.04 148.55 263.11C149.19 264.03 149.82 264.95 150.44 265.88ZM151.91 268.17C153.19 270.19 154.42 272.24 155.65 274.29C155.34 271.59 155.64 268.64 155.49 266.01C155.31 262.87 155.19 259.75 155.8 256.67C154.79 256.63 153.78 256.58 152.78 256.53C151.84 260.3 151.74 264.3 151.91 268.17ZM157.08 276.68C157.89 278.04 158.7 279.39 159.53 280.74C159.53 278.44 159.53 276.18 159.36 273.87C158.95 268.19 158.39 262.42 159.53 256.8C158.77 256.77 158 256.75 157.23 256.72C156.58 259.78 156.71 262.9 156.9 266.01C157.09 269.15 156.56 272.9 157.38 275.92C157.48 276.27 157.32 276.54 157.08 276.68ZM142.85 255.89C144.36 257.56 145.77 259.31 147.11 261.12C147.11 259.71 147.15 258.3 147.16 256.88C147.17 256.54 147.37 256.33 147.62 256.24C146.03 256.14 144.44 256.02 142.85 255.89ZM170.35 295.7C169.86 292.39 170.44 288.5 170.29 285.7C169.77 276.13 169.29 266.57 169.25 256.99C168.86 256.98 168.46 256.98 168.06 256.97C168.07 263.81 168.17 270.65 168.35 277.48C168.44 280.57 168.72 283.72 168.58 286.81C168.47 289.11 168.16 291.54 168.68 293.8C169.22 294.45 169.78 295.08 170.35 295.7ZM234.44 277.67C234.3 277.56 234.2 277.39 234.2 277.15C234.25 270.73 232.19 264.36 233.66 257.98C232.87 257.95 232.08 257.91 231.31 257.86C232.7 266.96 231.17 276.1 230.77 285.23C232.03 282.73 233.29 280.23 234.44 277.67ZM238.49 267.64C237.79 264.79 237.52 261.9 237.58 258.96C237.6 258.05 239.01 258.05 238.99 258.96C238.95 261.13 239.08 263.27 239.46 265.39C239.91 264.39 240.39 263.4 240.91 262.44C240.58 260.98 240.43 259.5 240.44 258C238.66 258.09 236.86 258.09 235.08 258.03C235.07 258.06 235.07 258.08 235.07 258.11C233.69 263.74 235.24 269.42 235.55 275.1C236.5 272.8 237.43 270.22 238.49 267.64ZM244.1 257.68C243.36 257.78 242.6 257.85 241.85 257.91C241.84 258.8 241.89 259.68 242.01 260.56C242.65 259.53 243.34 258.56 244.1 257.68Z" />
			<path id="&lt;Compound Path&gt;" fill-rule="evenodd" class="shp2" d="M252.47 218.68C255.17 224.32 253.68 231 252.57 236.86C252.26 238.46 252.04 240.59 251.48 242.52C251.26 243.58 251.02 244.64 250.74 245.69C250.5 246.58 249.69 246.82 249.01 246.63C248.54 246.98 248.01 247.25 247.38 247.4C246.85 247.54 246.3 247.36 245.95 246.97C245.59 247 245.22 247.03 244.86 247.04C242.15 247.17 239.48 247.58 236.79 247.96C231.87 248.66 226.96 249.35 221.99 249.67C221.61 249.89 221.15 249.91 220.75 249.75C218.56 249.87 216.37 249.97 214.18 250.04C213.92 250.13 213.64 250.14 213.37 250.07C212.26 250.1 211.15 250.12 210.04 250.14C209.79 250.22 209.5 250.22 209.24 250.16C201.83 250.28 194.4 250.17 187.01 250.01C180.86 249.87 174.72 249.62 168.58 249.3C168.16 249.3 167.75 249.29 167.33 249.29C165.8 249.57 163.91 249.6 162.33 249.21C159.53 249.16 156.73 249.08 153.92 248.98C153.8 249.36 153.66 249.74 153.51 250.11C153.22 250.85 152.24 251.56 151.44 250.95C150.68 250.37 150.19 249.62 149.86 248.79C148.18 248.7 146.5 248.6 144.82 248.5C144.4 248.48 143.96 248.44 143.51 248.4C143.44 248.4 143.37 248.39 143.3 248.39C143 248.36 142.69 248.34 142.38 248.32C142.09 248.42 141.78 248.41 141.48 248.3C141.17 248.31 140.86 248.32 140.55 248.36C139.98 248.44 139.26 248.64 138.68 248.48C137.46 248.14 136.83 247.19 136.52 246.05C136.23 245.89 136.01 245.62 135.95 245.23C135.89 244.87 135.84 244.52 135.79 244.16C135.66 243.93 135.53 243.69 135.4 243.43C135.34 243.31 135.3 243.2 135.28 243.09C135.16 242.95 135.06 242.78 135 242.57C133.89 239.05 134.32 235.35 134.26 231.73C134.21 227.79 133.98 223.82 133.51 219.91C133.48 219.86 133.44 219.81 133.42 219.76C133.37 219.68 133.32 219.61 133.28 219.53C132.79 218.68 133.27 217.77 134.12 217.46C137.52 216.19 141.45 217.16 144.98 217.14C150.07 217.12 155.13 217.19 160.22 217.37C167.9 217.65 175.58 217.95 183.26 218.21C183.8 217.91 184.5 217.93 184.93 218.27C187.41 218.35 189.88 218.43 192.36 218.5C199.07 218.69 205.78 218.71 212.5 218.56C212.83 218.41 213.22 218.4 213.57 218.53C215.92 218.47 218.27 218.39 220.62 218.29C221.2 217.45 222.57 217.2 223.01 218.17C223.43 218.15 223.85 218.14 224.26 218.11C226.4 218 228.52 217.93 230.64 217.9C230.78 217.87 230.93 217.87 231.07 217.89C233.02 217.87 234.97 217.88 236.94 217.92C237.01 217.32 237.08 216.72 237.16 216.12C237.36 214.7 239.58 214.83 239.88 216.12C240.02 216.73 240.15 217.34 240.26 217.96C243.68 217.95 247.07 217.67 250.3 216.42C251.48 215.96 252.19 217.13 251.95 218.11C252.16 218.22 252.34 218.4 252.47 218.68ZM189.97 246.41C190.09 246.41 190.21 246.4 190.34 246.4C190.3 246.21 190.27 246.02 190.24 245.83C190.16 246.03 190.07 246.22 189.97 246.41ZM192.52 228.47C192.51 227.15 192.51 225.83 192.55 224.52C192.49 225.84 192.49 227.15 192.52 228.47ZM194.15 246.34C194.18 246.34 194.21 246.34 194.24 246.34C194.22 246.3 194.2 246.25 194.19 246.21C194.18 246.25 194.17 246.3 194.15 246.34ZM196.48 240.2C196.48 240.61 196.49 241.02 196.49 241.43C196.48 241.84 196.46 242.27 196.45 242.7C196.52 242.4 196.58 242.1 196.64 241.79C196.58 241.26 196.52 240.73 196.48 240.2ZM184.87 237.3C184.87 238.86 184.89 240.41 184.93 241.96C185.08 240.45 184.99 238.76 184.87 237.3ZM168.39 245.25C168.49 245.22 168.59 245.2 168.68 245.17C168.64 244.92 168.6 244.68 168.56 244.44C168.5 244.71 168.45 244.98 168.39 245.25ZM163.15 245.2C163.47 245.21 163.78 245.21 164.09 245.22C164.09 245.1 164.1 244.97 164.1 244.85C163.78 244.95 163.45 245.06 163.15 245.2ZM173.6 244.16C173.62 244.16 173.63 244.16 173.64 244.16C173.65 244.13 173.65 244.1 173.65 244.07C173.64 244.1 173.62 244.13 173.6 244.16ZM159.05 245.96C159.08 245.97 159.1 245.97 159.13 245.97C159.1 245.96 159.08 245.95 159.06 245.94C159.06 245.95 159.05 245.96 159.05 245.96ZM162.16 242.83C162.17 242.83 162.18 242.82 162.19 242.82C162.19 242.8 162.19 242.77 162.19 242.75C162.18 242.78 162.17 242.81 162.16 242.83ZM152.07 240.32C152.07 241.36 152.07 242.4 152.06 243.45C152.06 243.84 152.03 244.39 152.02 245C152.19 244 152.31 242.99 152.39 241.97C152.3 241.13 152.26 240.28 152.25 239.43C152.2 239.72 152.13 240.02 152.07 240.32ZM146.31 245.59C146.6 245.58 146.88 245.58 147.17 245.57C147.15 245.1 147.12 244.63 147.1 244.15C146.87 244.65 146.61 245.13 146.31 245.59ZM171.56 246.59C171.63 246.59 171.71 246.59 171.79 246.59C171.72 246.53 171.66 246.46 171.61 246.38C171.6 246.45 171.58 246.52 171.56 246.59ZM229.75 242.05C229.76 242.04 229.78 242.02 229.8 242.01C229.8 241.97 229.79 241.93 229.79 241.9C229.78 241.95 229.76 242 229.75 242.05ZM231.24 244.28C231.26 244.29 231.28 244.29 231.3 244.29C231.3 244.28 231.29 244.26 231.29 244.25C231.27 244.26 231.26 244.27 231.24 244.28ZM218.29 234.47C218.33 234.26 218.39 234.05 218.44 233.85C218.39 233.86 218.34 233.86 218.29 233.87C218.29 234.07 218.29 234.27 218.29 234.47ZM227.15 231.57C227.06 231.57 226.98 231.56 226.9 231.55C226.9 231.58 226.9 231.6 226.9 231.63C226.87 232.28 226.84 232.94 226.82 233.6C226.92 232.92 227.03 232.24 227.15 231.57ZM238.48 242.16C238.49 242.12 238.49 242.07 238.49 242.03C238.44 242.06 238.38 242.09 238.32 242.12C238.38 242.13 238.43 242.14 238.48 242.16ZM203.5 244.74C203.37 245.15 203.21 245.55 203.03 245.93C203.38 245.91 203.73 245.89 204.08 245.87C203.89 245.71 203.74 245.5 203.66 245.26C203.6 245.09 203.55 244.91 203.5 244.74ZM248.06 243.58C248.16 243.44 248.25 243.29 248.34 243.13C248.24 243.17 248.15 243.2 248.05 243.22C248.05 243.34 248.06 243.46 248.06 243.58ZM227.62 220.78C227.41 220.79 227.21 220.8 227 220.81C227.17 220.97 227.32 221.17 227.41 221.4C227.43 221.45 227.44 221.49 227.45 221.53C227.5 221.28 227.56 221.03 227.62 220.78ZM206.31 221.47C205.9 221.47 205.48 221.48 205.06 221.48C205.06 221.58 205.06 221.67 205.07 221.77C205.38 221.61 205.76 221.6 206.11 221.71C206.17 221.62 206.24 221.54 206.31 221.47ZM198.6 221.77C198.61 221.66 198.62 221.55 198.65 221.45C198 221.44 197.35 221.43 196.7 221.42C196.72 221.5 196.74 221.58 196.74 221.67C196.79 222.36 196.9 223.04 197.04 223.71C197.47 223.39 198.08 223.35 198.57 223.57C198.57 222.97 198.58 222.37 198.6 221.77ZM192.91 221.33C192.88 221.33 192.85 221.33 192.81 221.33C192.81 221.38 192.81 221.44 192.81 221.5C192.84 221.44 192.87 221.38 192.91 221.33ZM190.02 221.24C189.5 221.23 188.98 221.21 188.45 221.2C188.87 221.74 189.19 222.35 189.42 223C189.59 222.41 189.79 221.82 190.02 221.24ZM180.75 220.94C180.7 220.94 180.65 220.94 180.6 220.94C180.65 220.99 180.7 221.04 180.74 221.1C180.74 221.06 180.75 221.01 180.75 220.96C180.75 220.96 180.75 220.95 180.75 220.94ZM177.38 220.82C177.21 220.82 177.03 220.81 176.85 220.8C177.03 220.94 177.16 221.11 177.24 221.34C177.28 221.17 177.33 220.99 177.38 220.82ZM173.31 220.67C172.73 220.65 172.15 220.63 171.57 220.61C171.57 220.62 171.57 220.62 171.57 220.63C172.14 220.68 172.72 221.04 172.95 221.61C173.04 221.35 173.13 221.09 173.23 220.83C173.25 220.78 173.28 220.73 173.31 220.67ZM242.32 242.99C242 242.83 241.69 242.62 241.4 242.38C241.34 242.55 241.28 242.72 241.22 242.89C241.13 243.11 240.99 243.29 240.83 243.44C240.85 243.47 240.87 243.49 240.89 243.52C241.17 243.4 241.46 243.28 241.74 243.15C241.93 243.05 242.13 243 242.32 242.99ZM201.4 221.48C201.41 221.57 201.42 221.67 201.42 221.77C201.39 224.05 201.64 226.31 201.87 228.57C202.04 226.21 202.18 223.85 202.22 221.48C201.95 221.48 201.67 221.48 201.4 221.48ZM161.33 220.23C161.27 220.23 161.22 220.23 161.17 220.23C161.34 221.58 161.46 222.93 161.53 224.28C161.65 224.25 161.78 224.23 161.91 224.22C161.9 222.89 161.81 221.56 161.59 220.24C161.5 220.24 161.41 220.23 161.33 220.23ZM148.45 219.96C148.48 220.43 148.52 220.9 148.55 221.38C148.62 220.85 148.76 220.37 148.97 219.96C148.8 219.96 148.63 219.96 148.45 219.96ZM245.3 244.21C245.3 244.12 245.29 244.03 245.29 243.94C245.06 243.73 244.92 243.45 244.9 243.1C244.34 243.35 243.8 243.41 243.29 243.32C243.59 243.57 243.8 243.92 243.86 244.28C244.34 244.26 244.82 244.25 245.3 244.21Z" />
			<path id="&lt;Compound Path&gt;" fill-rule="evenodd" class="shp2" d="M277.63 224.72C277.23 224.35 277.01 223.76 277.29 223.13C279.3 218.74 281.5 214.41 284.19 210.5C284.67 209.42 285.44 208.43 286.4 207.54C289.13 204.18 292.36 201.24 296.34 199C296.99 198.64 297.7 198.88 298.11 199.47C303.85 207.66 309.33 216.38 309.05 226.74C309.04 227.1 308.91 227.38 308.72 227.59C308.58 228.09 308.18 228.51 307.52 228.54C301.93 228.75 296.54 226.9 290.98 226.54C287.43 226.3 282.33 225.04 279.07 226.88C277.66 227.68 276.39 225.61 277.63 224.72ZM294.12 214.04C294.12 214.27 294.12 214.51 294.12 214.74C294.21 216.29 294.25 217.85 294.26 219.4C294.32 219.05 294.36 218.71 294.39 218.42C294.42 218.1 294.44 217.78 294.47 217.46C294.35 216.32 294.26 215.17 294.12 214.04ZM288.86 220.89C288.94 220.88 289.02 220.87 289.1 220.86C289.08 220.77 289.07 220.68 289.06 220.58C289.05 220.32 289.06 220.06 289.06 219.8C288.97 219.73 288.89 219.65 288.83 219.56C288.83 220.01 288.85 220.45 288.86 220.89ZM300.86 220.78C301.15 220.81 301.43 220.85 301.71 220.9C301.48 220.73 301.28 220.49 301.16 220.17C301.08 219.94 301 219.72 300.92 219.5C300.9 219.93 300.89 220.35 300.86 220.78ZM303.15 221.19C303.16 221.19 303.16 221.19 303.16 221.19C303.16 221.19 303.16 221.18 303.15 221.18C303.15 221.18 303.15 221.19 303.15 221.19ZM296.77 207.87C296.6 207.53 296.45 207.18 296.31 206.81C296.2 206.5 296.09 206.33 295.98 206.25C295.99 206.9 296 207.54 296.02 208.18C296.25 208.05 296.51 207.98 296.78 207.98C296.77 207.95 296.77 207.91 296.77 207.87ZM303.08 225.66C303.08 225.7 303.08 225.73 303.07 225.77C303.53 225.82 303.99 225.85 304.45 225.88C304.45 225.55 304.45 225.21 304.46 224.87C304 225.06 303.54 225.21 303.08 225.34C303.08 225.44 303.08 225.55 303.08 225.66ZM296.63 201.87C296.41 202 296.18 202.13 295.97 202.27C295.98 202.32 295.98 202.38 295.98 202.45C295.98 202.6 295.98 202.75 295.98 202.91C296.2 202.87 296.43 202.85 296.64 202.84C296.65 202.65 296.65 202.46 296.65 202.27C296.65 202.17 296.68 202.07 296.71 201.99C296.68 201.95 296.66 201.91 296.63 201.87ZM280.42 222.54C280.22 222.96 280.03 223.39 279.83 223.81C280.08 223.74 280.33 223.69 280.59 223.64C280.53 223.3 280.47 222.93 280.42 222.54Z" />
			<path id="&lt;Compound Path&gt;" fill-rule="evenodd" class="shp2" d="M309.07 233.16C309.61 251.94 306.41 270.34 302.66 288.67C301.7 293.41 300.94 298.22 299.44 302.84C299.05 304.03 298.57 305.6 297.87 307.06C297.87 307.18 297.86 307.31 297.86 307.44C297.83 308.06 297.46 308.45 297.01 308.61C296.22 309.8 295.21 310.73 293.91 311.04C293.42 311.43 292.68 311.5 292.21 311.1C291.75 311.45 291.08 311.53 290.54 311.01C290.19 310.68 289.82 310.3 289.46 309.88C289.12 309.82 288.81 309.63 288.66 309.25C288.45 309.05 288.31 308.78 288.3 308.43C286.48 305.96 284.94 302.78 285.21 300.08C284.08 297.18 283.43 294.11 282.89 291.06C281.68 284.33 280.68 277.58 280.06 270.77C279.4 263.58 278.92 256.37 278.55 249.16C278.38 245.71 278.24 242.26 277.91 238.82C277.68 236.4 277.44 233.99 277.92 231.61C277.73 231.55 277.54 231.48 277.31 231.37C276.04 230.78 276.8 229.04 277.97 228.95C283.4 228.55 288.77 229.16 294.18 229.6C299.21 230.01 304.27 229.9 309.26 230.67C310.74 230.9 310.34 232.91 309.07 233.16ZM290.02 298.27C289.93 298.27 289.83 298.27 289.73 298.26C289.73 298.51 289.73 298.75 289.74 299C289.77 298.95 289.81 298.91 289.85 298.87C289.86 298.66 289.92 298.46 290.02 298.27ZM306.47 232.91C302.04 232.43 297.54 232.5 293.1 232.1C288.94 231.73 284.79 231.35 280.62 231.44C280.61 231.47 280.61 231.5 280.6 231.53C279.8 234.5 280.45 237.65 280.66 240.66C280.91 244.2 281.07 247.74 281.26 251.28C281.63 258.14 282.08 265.01 282.76 271.85C283.44 278.71 284.36 285.58 285.77 292.33C286.03 293.56 286.29 294.78 286.61 295.99C287.84 295.66 289.17 295.66 290.53 295.72C290.73 295.4 291.08 295.19 291.57 295.25C292.47 295.36 293.34 295.53 294.14 295.83C295.71 295.77 297.2 295.44 298.45 294.38C298.62 294.24 298.79 294.15 298.97 294.1C299.7 290.66 300.35 287.2 301.06 283.76C304.53 267.04 306.99 250.02 306.47 232.91Z" />
			<path id="&lt;Path&gt;" class="shp2" d="M297.16 315.01C294.28 315.76 291.24 315.28 288.62 313.9C287.14 313.13 285.82 315.37 287.31 316.15C290.54 317.85 294.29 318.44 297.85 317.51C299.48 317.09 298.79 314.58 297.16 315.01Z" />
			<path id="&lt;Path&gt;" class="shp2" d="M284.85 323.31C283.73 327.25 282.02 330.98 280.89 334.9C280.42 336.52 282.93 337.2 283.4 335.59C284.53 331.67 286.24 327.94 287.35 324C287.81 322.39 285.3 321.7 284.85 323.31Z" />
			<path id="&lt;Path&gt;" class="shp2" d="M290.39 327.11C290.39 328.59 290.39 330.07 290.39 331.55C290.39 333.23 292.99 333.23 292.99 331.55C292.99 330.07 292.99 328.59 292.99 327.11C292.99 325.43 290.39 325.43 290.39 327.11Z" />
			<path id="&lt;Path&gt;" class="shp2" d="M297.37 323.31C296.91 321.7 294.41 322.39 294.86 324C296.51 329.89 299.13 335.43 300.91 341.27C301.4 342.86 303.91 342.18 303.42 340.57C301.63 334.74 299.01 329.2 297.37 323.31Z" />
			<path id="&lt;Compound Path&gt;" fill-rule="evenodd" class="shp2" d="M273.84 225.66C272.44 231.78 272.53 238.47 272.33 244.72C272.3 245.41 271.7 246.22 270.92 246.13C265.92 245.52 260.94 244.84 255.91 244.63C255.12 244.59 254.54 244.01 254.5 243.22C254.34 239.43 255.57 235.82 256.22 232.13C256.95 227.91 257.42 223.65 258.41 219.48C258.5 219.11 258.69 218.85 258.94 218.69C259.01 217.89 259.68 217.16 260.66 217.46C265.2 218.83 269.03 221.89 273.19 224.07C273.76 224.37 273.98 225.06 273.84 225.66ZM266.94 242.82C267.26 240.46 266.95 238.1 267.02 235.71C267.12 232.59 267.41 229.48 267.37 226.35C267.35 225.22 268.42 224.8 269.25 225.07C268.52 224.62 267.78 224.16 267.05 223.71C266.93 230.06 266.26 236.38 266.21 242.73C266.45 242.76 266.69 242.79 266.94 242.82ZM262.56 241.94C262.57 242.08 262.55 242.2 262.52 242.31C262.81 242.34 263.1 242.37 263.39 242.41C263.47 235.83 264.2 229.29 264.25 222.71C264.25 222.49 264.3 222.3 264.37 222.13C264.25 222.06 264.13 222 264.01 221.93C263.93 222.62 263.79 223.3 263.71 223.98C263.43 226.14 263.11 228.32 263.01 230.5C262.81 234.31 262.52 238.12 262.56 241.94ZM270.88 226.02C270.52 225.81 270.15 225.6 269.79 225.39C270.02 225.61 270.18 225.93 270.19 226.35C270.22 229.15 269.92 231.95 269.85 234.75C270.02 231.8 270.31 228.86 270.88 226.02ZM257.32 241.88C258.14 241.93 258.95 241.99 259.76 242.05C259.75 242.01 259.75 241.98 259.75 241.94C259.7 238.14 259.91 234.29 260.19 230.5C260.32 228.68 260.52 226.87 260.75 225.06C260.91 223.82 261.46 221.98 261.24 220.64C261.18 220.61 261.12 220.59 261.05 220.57C260.11 224.64 259.71 228.78 258.93 232.88C258.37 235.87 257.45 238.84 257.32 241.88Z" />
			<path id="&lt;Compound Path&gt;" fill-rule="evenodd" class="shp2" d="M75.96 217.83C77.64 213.62 79.47 209.48 81.73 205.64C81.49 205.15 81.54 204.57 81.98 204.07C82.87 203.05 83.79 202.04 84.76 201.09C87.26 197.78 90.24 194.84 93.95 192.51C94.4 192.23 95.18 192.27 95.53 192.71C96.03 193.37 96.54 194.02 97.04 194.68C99.79 196.56 101.42 199.29 102.84 202.25C103.03 202.64 103.03 203.01 102.93 203.33C105.8 208.31 107.83 213.66 107.97 219.69C107.98 220.09 107.83 220.39 107.61 220.59C107.45 221.05 107.07 221.44 106.46 221.49C106.2 221.51 105.94 221.53 105.68 221.54C105.43 221.89 104.83 221.96 104.54 221.58C102.41 221.6 100.29 221.39 98.18 221.12C98.18 221.13 98.18 221.14 98.18 221.15C98.18 222.06 96.77 222.06 96.77 221.15C96.77 221.08 96.77 221.01 96.77 220.94C94.46 220.64 92.16 220.34 89.84 220.31C87.11 220.26 83.52 219.68 80.55 220.29C80.34 220.61 79.87 220.73 79.57 220.55C79 220.73 78.46 220.96 77.97 221.27C76.64 222.11 75.41 220.18 76.43 219.2C75.98 218.95 75.71 218.47 75.96 217.83ZM105.34 218.97C105.29 217.94 105.17 216.94 105.01 215.95C105.01 215.98 105.01 216 105.01 216.03C105.16 216.79 105.23 217.58 105.22 218.4C105.25 218.59 105.28 218.78 105.31 218.97C105.32 218.97 105.33 218.97 105.34 218.97ZM97.11 199.1C97.1 199.31 97.08 199.52 97.08 199.73C97.12 199.87 97.16 200.02 97.2 200.16C97.4 200.1 97.62 200.07 97.82 200.1C97.58 199.77 97.35 199.43 97.11 199.1ZM99.45 202.55C99.45 202.57 99.44 202.58 99.44 202.6C99.55 202.94 99.65 203.27 99.74 203.61C99.82 203.54 99.91 203.49 100.01 203.44C99.83 203.14 99.64 202.84 99.45 202.55ZM92.72 208.52C92.69 209.1 92.67 209.69 92.65 210.27C92.67 211.49 92.67 212.71 92.65 213.94C92.66 213.93 92.67 213.93 92.68 213.93C92.74 212.85 92.79 211.77 92.85 210.68C92.8 209.96 92.75 209.24 92.72 208.52ZM99.87 218.79C100.11 218.81 100.36 218.83 100.6 218.85C100.6 218.75 100.61 218.66 100.61 218.56C100.42 218.43 100.26 218.27 100.14 218.06C100.11 218.33 100.01 218.58 99.87 218.79ZM102.01 218.94C102.19 218.95 102.37 218.96 102.56 218.96C102.48 218.82 102.43 218.65 102.41 218.46C102.3 218.59 102.16 218.68 102.01 218.74C102.01 218.81 102.01 218.88 102.01 218.94ZM102.97 209.12C102.83 208.79 102.69 208.47 102.54 208.15C102.56 208.42 102.58 208.69 102.59 208.96C102.72 209 102.85 209.05 102.97 209.12ZM78.63 218.12C78.72 218.09 78.82 218.07 78.91 218.04C78.89 217.96 78.88 217.88 78.87 217.79C78.83 217.79 78.81 217.78 78.78 217.77C78.73 217.89 78.68 218 78.63 218.12Z" />
			<path id="&lt;Compound Path&gt;" fill-rule="evenodd" class="shp2" d="M108.3 226.1C109.76 244.83 107.45 263.36 104.62 281.85C103.88 286.64 103.37 291.48 102.09 296.16C101.77 297.37 101.36 298.92 100.75 300.38C100.75 300.53 100.75 300.68 100.76 300.83C100.76 301.47 100.39 301.87 99.93 302.02C99.23 303.18 98.31 304.11 97.09 304.51C96.64 304.96 95.83 305.08 95.31 304.68C94.84 305.04 94.15 305.16 93.57 304.66C93.21 304.34 92.83 303.99 92.45 303.59C92.15 303.54 91.87 303.37 91.69 303.07C91.45 302.86 91.29 302.58 91.26 302.24C89.33 299.87 87.66 296.79 87.77 294.07C87.73 294 87.7 293.94 87.66 293.87C86.39 291.11 85.66 288.04 84.98 285.09C83.39 278.18 82.03 271.25 81.06 264.22C80.11 257.32 79.3 250.39 78.6 243.45C78.24 239.85 77.88 236.26 77.38 232.68C77.07 230.45 76.79 228.25 77.11 226.03C76.99 226.01 76.88 225.97 76.74 225.91C75.35 225.34 75.6 223.54 77.09 223.36C82.5 222.69 87.89 223.03 93.32 223.2C98.24 223.36 103.18 222.99 108.08 223.5C109.66 223.67 109.74 226.04 108.3 226.1ZM92.38 292.01C92.31 292.01 92.25 292.01 92.19 292.01C92.19 292.24 92.21 292.47 92.23 292.69C92.25 292.65 92.28 292.62 92.31 292.59C92.3 292.39 92.31 292.19 92.38 292.01ZM105.69 225.92C101.21 225.67 96.71 225.94 92.23 225.76C88.07 225.6 83.93 225.42 79.78 225.71C79.78 225.76 79.78 225.81 79.77 225.87C79.11 228.87 79.93 231.99 80.29 234.98C80.71 238.51 81.05 242.04 81.42 245.57C82.15 252.64 82.96 259.73 84.04 266.77C85.05 273.33 86.28 279.91 87.96 286.34C88.27 287.53 88.59 288.72 88.96 289.89C90.19 289.48 91.54 289.41 92.9 289.41C93.12 289.09 93.47 288.87 93.93 288.9C94.79 288.96 95.66 289.09 96.48 289.34C98.05 289.2 99.53 288.8 100.75 287.65C100.9 287.52 101.05 287.42 101.21 287.36C101.72 284.2 102.15 281.02 102.65 277.85C105.38 260.71 107.07 243.27 105.69 225.92Z" />
			<path id="&lt;Path&gt;" class="shp2" d="M100.5 308.35C97.66 309.23 94.6 308.96 91.9 307.72C90.39 307.02 89.07 309.26 90.59 309.96C93.91 311.5 97.66 311.95 101.19 310.85C102.78 310.35 102.1 307.84 100.5 308.35Z" />
			<path id="&lt;Path&gt;" class="shp2" d="M88.56 317.2C87.64 321.19 86.12 325 85.17 328.98C84.79 330.61 87.3 331.3 87.68 329.67C88.62 325.69 90.14 321.88 91.06 317.9C91.44 316.26 88.94 315.57 88.56 317.2Z" />
			<path id="&lt;Path&gt;" class="shp2" d="M94.26 320.72C94.33 322.2 94.41 323.68 94.48 325.16C94.56 326.83 97.16 326.83 97.08 325.16C97.01 323.68 96.93 322.2 96.86 320.72C96.78 319.05 94.18 319.05 94.26 320.72Z" />
			<path id="&lt;Path&gt;" class="shp2" d="M101.06 316.71C100.54 315.13 98.02 315.81 98.56 317.4C100.49 323.2 103.38 328.6 105.45 334.35C106.02 335.91 108.53 335.24 107.96 333.65C105.89 327.91 103 322.51 101.06 316.71Z" />
			<path id="&lt;Compound Path&gt;" fill-rule="evenodd" class="shp2" d="M130.56 235.16C130.9 238.55 131.46 241.89 130.95 245.29C130.86 245.87 130.15 246.36 129.59 246.33C124.56 246 119.54 246.16 114.51 246.23C113.78 246.24 113.05 245.58 113.1 244.82C113.56 238.45 114.36 231.7 113.6 225.33C113.52 224.67 114.1 224.18 114.63 223.97C118.88 222.3 122.91 219.7 127.44 218.83C128.53 218.62 129.23 219.57 129.2 220.4C129.42 220.62 129.58 220.91 129.63 221.28C130.22 225.89 130.1 230.54 130.56 235.16ZM119.75 243.33C120.79 237.12 120.04 230.82 120.11 224.55C119.9 224.65 119.69 224.75 119.49 224.85C119.49 224.89 119.49 224.92 119.49 224.96C119.34 228.08 119.64 231.19 119.56 234.3C119.48 237.32 119.09 240.32 119.14 243.34C119.34 243.34 119.54 243.33 119.75 243.33ZM116.63 226.17C116.59 226.19 116.55 226.21 116.51 226.22C116.55 226.68 116.59 227.14 116.62 227.6C116.62 227.12 116.62 226.65 116.63 226.17ZM116.72 232.43C116.65 236.09 116.31 239.79 116.03 243.39C116.13 243.39 116.22 243.39 116.32 243.38C116.27 240.34 116.73 237.34 116.74 234.3C116.74 233.68 116.73 233.05 116.72 232.43ZM122.59 243.31C122.92 243.31 123.26 243.31 123.59 243.31C123.54 236.58 123.31 229.85 123.27 223.11C123.16 223.16 123.06 223.2 122.96 223.25C122.74 229.96 123.57 236.65 122.59 243.31ZM126.41 243.36C127.05 243.38 127.7 243.41 128.35 243.44C128.61 239.99 127.77 236.45 127.58 233.02C127.38 229.29 127.31 225.56 126.88 221.85C126.61 221.92 126.34 222 126.08 222.08C126.1 229.18 126.36 236.27 126.41 243.36Z" />
			<path id="&lt;Path&gt;" class="shp2" d="M92.97 238.32C94.79 238.32 94.79 235.51 92.97 235.51C91.15 235.51 91.15 238.32 92.97 238.32Z" />
			<path id="&lt;Path&gt;" class="shp2" d="M93.14 247.11C91.32 247.11 91.32 249.93 93.14 249.93C94.96 249.93 94.96 247.11 93.14 247.11Z" />
			<path id="&lt;Path&gt;" class="shp2" d="M92.79 261.88C93.56 261.88 94.2 261.24 94.2 260.47C94.2 259.7 93.56 259.06 92.79 259.06C92.74 259.06 92.68 259.06 92.62 259.06C91.85 259.06 91.21 259.7 91.21 260.47C91.21 261.24 91.85 261.88 92.62 261.88C92.68 261.88 92.74 261.88 92.79 261.88Z" />
			<path id="&lt;Path&gt;" class="shp2" d="M93.31 272.57C91.5 272.57 91.5 275.39 93.31 275.39C95.13 275.39 95.13 272.57 93.31 272.57Z" />
			<path id="&lt;Path&gt;" class="shp2" d="M294.11 238.69C294.05 238.75 293.99 238.81 293.93 238.86C293.39 239.41 293.39 240.31 293.93 240.86C294.48 241.4 295.38 241.4 295.93 240.86C295.99 240.8 296.04 240.74 296.1 240.68C296.64 240.14 296.64 239.23 296.1 238.69C295.56 238.15 294.65 238.15 294.11 238.69Z" />
			<path id="&lt;Path&gt;" class="shp2" d="M293.55 250.58C291.73 250.58 291.73 253.39 293.55 253.39C295.36 253.39 295.36 250.58 293.55 250.58Z" />
			<path id="&lt;Path&gt;" class="shp2" d="M292.68 264.26C290.86 264.26 290.86 267.08 292.68 267.08C294.5 267.08 294.5 264.26 292.68 264.26Z" />
			<path id="&lt;Path&gt;" class="shp2" d="M291.64 279.5C289.82 279.5 289.82 282.32 291.64 282.32C293.46 282.32 293.46 279.5 291.64 279.5Z" />
			<path id="&lt;Compound Path&gt;" fill-rule="evenodd" class="shp2" d="M161.55 64.64C161.88 63.5 162.29 62.41 162.75 61.34C162.75 61.26 162.75 61.18 162.75 61.11C162.75 60.55 163.01 60.17 163.37 59.95C166.34 53.77 171.06 48.47 175.08 42.96C179.53 36.87 183.35 30.36 187.54 24.1C187.53 24.02 187.52 23.94 187.52 23.87C187.44 23.04 187.98 22.6 188.61 22.53C189.54 21.17 190.48 19.82 191.47 18.5C192.13 17.6 193.24 17.59 193.9 18.5C194.51 19.32 195.11 20.15 195.7 20.98C196.28 21.1 196.76 21.54 196.74 22.31C196.74 22.36 196.75 22.41 196.75 22.46C200.51 27.77 204.1 33.21 207.48 38.78C207.94 38.86 208.34 39.16 208.47 39.77C208.54 40.08 208.59 40.4 208.64 40.71C209.87 42.79 211.08 44.89 212.26 47C212.49 47.16 212.69 47.4 212.8 47.74C212.86 47.91 212.9 48.08 212.95 48.24C215.55 52.99 217.99 57.82 220.24 62.74C220.4 63.08 220.41 63.41 220.34 63.7C221.6 64.2 221.42 66.43 219.81 66.42C210.44 66.38 201.14 65.1 191.8 64.58C182.95 64.09 173.66 63.85 165.17 66.76C164.88 67.03 164.48 67.16 164.09 67.14C164.08 67.14 164.07 67.15 164.06 67.15C163.22 67.47 162.61 66.96 162.42 66.28C161.79 66.06 161.31 65.47 161.55 64.64ZM193.93 33.57C193.92 33.52 193.93 33.49 193.93 33.45C193.9 33.45 193.87 33.46 193.84 33.47C193.91 35.16 194.03 36.86 194.36 38.53C194.25 36.87 194.09 35.22 193.93 33.57ZM197.55 52.58C197.63 52.61 197.71 52.65 197.79 52.7C197.76 52.33 197.71 51.96 197.67 51.6C197.65 51.93 197.61 52.27 197.55 52.58ZM191.2 30.04C191.17 29.92 191.13 29.81 191.1 29.69C191.12 29.8 191.14 29.91 191.16 30.03C191.17 30.03 191.19 30.04 191.2 30.04ZM176.43 61.69C176.44 61.69 176.45 61.69 176.46 61.68C176.45 61.68 176.44 61.67 176.43 61.67C176.43 61.67 176.43 61.68 176.43 61.69ZM196.55 62.1C196.66 62.11 196.77 62.12 196.88 62.13C196.83 62.04 196.78 61.94 196.75 61.83C196.63 61.45 196.53 61.07 196.43 60.69C196.47 61.16 196.51 61.63 196.55 62.1ZM205.06 62.81C205.1 62.82 205.14 62.82 205.18 62.82C205.13 62.73 205.09 62.63 205.06 62.52C205.06 62.51 205.05 62.49 205.05 62.48C205.05 62.59 205.06 62.7 205.06 62.81ZM187 30.13C186.94 30.21 186.89 30.3 186.83 30.38C186.89 30.36 186.94 30.35 187 30.34C187 30.27 186.99 30.2 187 30.13ZM185.96 31.75C185.79 32.02 185.62 32.28 185.45 32.55C185.64 32.55 185.83 32.58 186 32.64C185.98 32.34 185.97 32.04 185.96 31.75ZM165.57 61.89C165.57 62.09 165.57 62.29 165.57 62.49C165.59 62.26 165.61 62.03 165.61 61.8C165.6 61.83 165.58 61.86 165.57 61.89ZM188.08 28.44C187.98 28.59 187.88 28.74 187.79 28.89C187.89 28.84 188.01 28.8 188.12 28.78C188.11 28.66 188.09 28.55 188.08 28.44Z" />
			<path id="&lt;Compound Path&gt;" fill-rule="evenodd" class="shp2" d="M169.11 114.8C173.34 104.33 185.23 97.33 196.28 101C196.4 100.24 197.03 99.59 197.96 99.93C200.88 101.01 203.97 102.02 206.28 104.21C208.67 106.48 210.65 109.3 212.09 112.26C214.93 118.13 216.08 124.29 213.34 130.44C207.81 142.86 192.26 150.76 179.32 144.93C168.35 139.99 164.86 125.35 169.11 114.8ZM181.31 142.72C192.49 146.62 205.71 140.7 210.55 129.83C213.1 124.08 212.23 118.28 209.24 112.88C207.91 110.49 206.4 107.98 204.29 106.21C202.58 104.77 200.63 103.93 198.59 103.17C198.31 103.88 197.45 104.47 196.53 104.07C186.07 99.51 173.93 107.32 171.13 117.65C168.68 126.71 171.41 139.25 181.31 142.72Z" />
			<path id="&lt;Compound Path&gt;" fill-rule="evenodd" class="shp2" d="M180.31 119.79C182 115.48 187.02 110.28 191.98 110.98C195.19 111.03 198.53 111.5 200.26 114.61C202.02 117.78 202.51 121.75 201.33 125.23C199.3 131.21 193.19 135.42 186.81 133.24C180.96 131.24 178.03 125.66 180.31 119.79ZM184.55 117.97C184.93 118.2 185.22 118.58 185.28 119.07C185.28 118.93 185.28 118.8 185.28 118.67C185.3 118.14 185.36 117.57 185.31 117.03C185.04 117.33 184.79 117.65 184.55 117.97ZM185.27 119.46C185.26 119.47 185.27 119.49 185.26 119.51C185.25 119.58 185.24 119.65 185.22 119.72C185.24 119.73 185.25 119.75 185.27 119.76C185.27 119.66 185.27 119.56 185.27 119.46ZM186.33 130.05C186.34 130.05 186.35 130.06 186.36 130.06C186.39 129.94 186.43 129.81 186.5 129.68C186.87 128.97 186.93 128.13 186.88 127.29C186.75 128.22 186.57 129.14 186.33 130.05Z" />
			<path id="&lt;Path&gt;" class="shp2" d="M195.33 155.47C195.08 155 194.53 154.8 193.98 154.87C192.63 154.37 191.16 154.13 189.79 154.1C189.25 154.08 188.87 154.33 188.65 154.68C185.74 155.18 184 158.35 184.56 161.54C185.19 165.09 189.19 167.28 192.48 167.46C196.41 167.68 199.29 163.8 198.75 160.07C198.43 157.9 197.08 156.41 195.33 155.47Z" />
			<path id="&lt;Path&gt;" class="shp2" d="M194.6 180.82C194.43 180.5 194.06 180.37 193.7 180.41C192.79 180.09 191.8 179.92 190.89 179.9C190.52 179.89 190.27 180.05 190.12 180.29C188.17 180.62 187.01 182.75 187.38 184.89C187.8 187.27 190.48 188.73 192.69 188.85C195.32 189 197.25 186.4 196.89 183.9C196.68 182.45 195.77 181.45 194.6 180.82Z" />
			<path id="&lt;Path&gt;" class="shp2" d="M138.7 200.48C140.51 200.48 140.51 197.66 138.7 197.66C136.88 197.66 136.88 200.48 138.7 200.48Z" />
			<path id="&lt;Path&gt;" class="shp2" d="M148.3 200.5C148.28 200.51 148.27 200.53 148.25 200.54C148.35 200.5 148.35 200.49 148.3 200.5Z" />
			<path id="&lt;Path&gt;" class="shp2" d="M147.72 200.81C147.79 200.77 147.86 200.73 147.93 200.69C148.04 200.66 148.14 200.61 148.24 200.55C148.24 200.54 148.24 200.54 148.25 200.54C148.22 200.55 148.17 200.57 148.12 200.58C148.15 200.57 148.17 200.56 148.19 200.54C148.24 200.52 148.28 200.51 148.3 200.5C148.83 200.11 149.15 199.58 148.98 198.88C148.79 198.13 147.97 197.71 147.25 197.9C146.91 197.99 146.6 198.21 146.3 198.37C145.63 198.74 145.41 199.65 145.79 200.3C146.19 200.98 147.05 201.18 147.72 200.81Z" />
			<path id="&lt;Path&gt;" class="shp2" d="M156.88 198.44C155.06 198.44 155.06 201.26 156.88 201.26C158.7 201.26 158.7 198.44 156.88 198.44Z" />
			<path id="&lt;Path&gt;" class="shp2" d="M166.5 200.74C167.26 200.74 167.9 200.1 167.9 199.33C167.9 199.24 167.9 199.16 167.9 199.07C167.9 198.3 167.26 197.66 166.5 197.66C165.73 197.66 165.09 198.3 165.09 199.07C165.09 199.16 165.09 199.24 165.09 199.33C165.09 200.1 165.73 200.74 166.5 200.74Z" />
			<path id="&lt;Path&gt;" class="shp2" d="M176.11 197.66C174.29 197.66 174.29 200.48 176.11 200.48C177.93 200.48 177.93 197.66 176.11 197.66Z" />
			<path id="&lt;Path&gt;" class="shp2" d="M184.42 198.18C182.6 198.18 182.6 201 184.42 201C186.24 201 186.24 198.18 184.42 198.18Z" />
			<path id="&lt;Path&gt;" class="shp2" d="M193.52 197.4C191.7 197.4 191.7 200.22 193.52 200.22C195.33 200.22 195.33 197.4 193.52 197.4Z" />
			<path id="&lt;Path&gt;" class="shp2" d="M201.05 197.4C199.23 197.4 199.23 200.22 201.05 200.22C202.87 200.22 202.87 197.4 201.05 197.4Z" />
			<path id="&lt;Path&gt;" class="shp2" d="M210.14 197.4C210.06 197.4 209.97 197.4 209.88 197.4C209.12 197.4 208.48 198.04 208.48 198.81C208.48 199.58 209.12 200.22 209.88 200.22C209.97 200.22 210.06 200.22 210.14 200.22C210.91 200.22 211.55 199.58 211.55 198.81C211.55 198.04 210.91 197.4 210.14 197.4Z" />
			<path id="&lt;Path&gt;" class="shp2" d="M218.72 196.88C216.9 196.88 216.9 199.7 218.72 199.7C220.54 199.7 220.54 196.88 218.72 196.88Z" />
			<path id="&lt;Path&gt;" class="shp2" d="M228.59 199.18C228.85 199.18 229.11 199.18 229.37 199.18C230.14 199.18 230.78 198.54 230.78 197.77C230.78 197 230.14 196.36 229.37 196.36C229.11 196.36 228.85 196.36 228.59 196.36C227.82 196.36 227.18 197 227.18 197.77C227.18 198.54 227.82 199.18 228.59 199.18Z" />
			<path id="&lt;Path&gt;" class="shp2" d="M237.17 198.4C238.98 198.4 238.98 195.58 237.17 195.58C235.35 195.58 235.35 198.4 237.17 198.4Z" />
			<path id="&lt;Path&gt;" class="shp2" d="M247.82 198.14C249.64 198.14 249.64 195.32 247.82 195.32C246 195.32 246 198.14 247.82 198.14Z" />
			<path id="&lt;Path&gt;" class="shp2" d="M155.65 85.36C157.2 86.08 158.86 85.91 160.52 85.9C162.34 85.89 162.34 83.07 160.52 83.08C159.48 83.08 158.05 83.38 157.07 82.93C156.38 82.6 155.56 82.72 155.15 83.43C154.78 84.05 154.95 85.04 155.65 85.36Z" />
			<path id="&lt;Path&gt;" class="shp2" d="M172.99 86.59C174.15 86.59 175.3 86.59 176.45 86.59C178.27 86.59 178.27 83.77 176.45 83.77C175.3 83.77 174.15 83.77 172.99 83.77C171.17 83.77 171.17 86.59 172.99 86.59Z" />
			<path id="&lt;Path&gt;" class="shp2" d="M187.54 87.63C189.18 87.53 190.77 87.14 192.39 86.94C193.15 86.84 193.8 86.37 193.8 85.53C193.8 84.83 193.15 84.02 192.39 84.12C190.77 84.32 189.17 84.71 187.54 84.81C185.74 84.93 185.72 87.75 187.54 87.63Z" />
			<path id="&lt;Path&gt;" class="shp2" d="M203.13 87.63C205.23 87.37 207.35 87.12 209.39 86.54C211.14 86.05 210.4 83.33 208.64 83.82C206.84 84.33 204.99 84.58 203.13 84.81C201.35 85.04 201.33 87.86 203.13 87.63Z" />
			<path id="&lt;Path&gt;" class="shp2" d="M217.35 85.71C217.05 85.84 217.42 85.69 217.46 85.68C217.57 85.64 217.69 85.61 217.8 85.59C217.83 85.58 217.89 85.57 217.95 85.56C218.09 85.55 218.23 85.55 218.37 85.55C219.14 85.57 219.78 84.9 219.78 84.14C219.78 83.36 219.14 82.75 218.37 82.73C217.5 82.72 216.72 82.93 215.93 83.27C215.22 83.58 215.07 84.6 215.42 85.2C215.84 85.92 216.65 86.02 217.35 85.71Z" />
			<path id="&lt;Path&gt;" class="shp2" d="M175.93 311.72C174.9 313.37 174.08 315.11 173.36 316.91C173.08 317.62 173.67 318.46 174.35 318.64C175.15 318.87 175.8 318.37 176.08 317.66C176.71 316.09 177.47 314.58 178.37 313.15C179.33 311.6 176.89 310.19 175.93 311.72Z" />
			<path id="&lt;Path&gt;" class="shp2" d="M190.98 315.21C190.98 316.25 190.98 317.29 190.98 318.32C190.98 320.14 193.8 320.14 193.8 318.32C193.8 317.29 193.8 316.25 193.8 315.21C193.8 313.39 190.98 313.39 190.98 315.21Z" />
			<path id="&lt;Path&gt;" class="shp2" d="M208.65 314.83C208.53 314.07 207.58 313.66 206.91 313.85C206.1 314.07 205.82 314.82 205.93 315.58C206.09 316.69 206.14 317.8 206.58 318.85C206.82 319.44 207.25 319.89 207.94 319.89C208.7 319.89 209.35 319.25 209.35 318.48C209.34 317.83 209.18 317.26 208.9 316.69C208.79 316.08 208.74 315.45 208.65 314.83Z" />
			<path id="&lt;Path&gt;" class="shp2" d="M220.41 312.48C219.22 311.1 217.23 313.1 218.41 314.47C219.75 316.02 221.15 317.51 222.57 318.97C223.84 320.28 225.83 318.28 224.56 316.98C223.14 315.52 221.74 314.03 220.41 312.48Z" />
		</g>
	</g>
</svg>